<svg xmlns="http://www.w3.org/2000/svg" width="25" height="30" fill="none"><path fill="#fff" fill-rule="evenodd" d="M18.6173.07615c.3737-.15478.8038-.06923 1.0898.21677.9085.9085 2.0967 2.87773 3.0588 5.9179C23.7373 9.28039 24.5 13.5081 24.5 19c0 .5523-.4477 1-1 1H20v9c0 .5523-.4477 1-1 1s-1-.4477-1-1V1.00003c0-.40446.2436-.7691.6173-.92388ZM20 18h2.4912c-.0859-4.8164-.7861-8.51245-1.6321-11.18576-.2784-.87967-.5706-1.64274-.8591-2.29529V18ZM6 0c.55228 0 1 .44771 1 1v28c0 .5523-.44772 1-1 1s-1-.4477-1-1V1c0-.55229.44772-1 1-1Z" clip-rule="evenodd"/><path fill="#fff" fill-rule="evenodd" d="M1.5 0c.55228 0 1 .44771 1 1v5.5c0 .55686.19203 1.31518.70088 1.91656C3.68001 8.98281 4.51446 9.5 5.99993 9.5c.55228 0 1 .44771 1 1 0 .5523-.44772 1-1 1-2.01446 0-3.42998-.7328-4.32583-1.79156C.80797 8.68482.5 7.44314.5 6.5V1c0-.55229.44771-1 1-1Z" clip-rule="evenodd"/><path fill="#fff" fill-rule="evenodd" d="M10.5 0c-.55229 0-1 .44771-1 1v5.5c0 .55686-.19203 1.31518-.70088 1.91656C8.31999 8.98281 7.4854 9.5 5.99993 9.5c-.55228 0-.99986.44771-.99986 1 0 .5523.44758 1 .99986 1 2.01446 0 3.43012-.7328 4.32597-1.79156C11.192 8.68482 11.5 7.44314 11.5 6.5V1c0-.55229-.4477-1-1-1Z" clip-rule="evenodd"/></svg>