<svg xmlns="http://www.w3.org/2000/svg" width="28" height="22" fill="none"><path fill="#666" d="M1 5.33876c0-.85503.5151-1.31608 1.54531-1.38314l3.96984.02515c.26643 0 .44406.12574.53287.37722.40853 1.25739.8659 2.34295 1.37212 3.25666.50623.9137 1.16787 1.96573 1.98496 3.15605.071.1509.1865.2263.3463.2263.1244 0 .2221-.0586.2931-.176l.0799-.2766.0267-4.35061c0-.30178-.0755-.50296-.2265-.60355-.151-.1006-.4307-.17604-.8393-.22633-.31967-.0503-.47953-.23472-.47953-.55326 0-.06706.00888-.11736.02664-.15089.37299-1.08974 1.43869-1.63461 3.19719-1.63461L14.3216 3c.675 0 1.2345.15927 1.6785.47781.4441.31854.6661.8215.6661 1.50888v5.70861c.1244.0838.2398.1257.3464.1257.2664 0 .4973-.1509.6927-.4527 1.9539-2.58181 3.0107-4.30864 3.1706-5.18043 0-.01677.0177-.05868.0532-.12574.1244-.25148.3286-.46943.6128-.65385.2842-.18441.5329-.31015.7461-.37721.071-.03354.1509-.0503.2397-.0503h4.1297l.2665.02515c.3552 0 .6305.15927.8259.47781.0711.10059.1199.20956.1466.32692.0266.11736.0444.23471.0532.35207.0089.11736.0134.18442.0134.20119v.17603c-.1244.68738-.4397 1.42086-.9459 2.20044-.5062.77959-1.1501 1.62205-1.9316 2.52742-.7815.9053-1.27 1.5004-1.4654 1.7855-.1598.2011-.2398.3856-.2398.5532 0 .1341.0711.285.2132.4527l3.8899 4.6272c.2131.2682.3197.5616.3197.8802 0 .3856-.1599.7041-.4796.9556-.3197.2515-.7016.394-1.1456.4275l-.453.0252h-4.0497c-.0178 0-.0533.0041-.1066.0125-.0533.0084-.0888.0126-.1066.0126-.3908 0-.7549-.1593-1.0924-.4778-.1243-.1341-.9591-1.1233-2.5044-2.9675-.0888-.1173-.2132-.2263-.373-.3269-.0711.2683-.1643.6539-.2798 1.1568-.1154.503-.1998.8634-.2531 1.0814l-.0799.4275c-.1776.5868-.5507.9388-1.119 1.0562l-.373.0252h-2.6111c-1.4742 0-2.94406-.6371-4.40944-1.9113-1.46538-1.2742-2.78422-2.9213-3.95652-4.9416-1.17231-2.0202-2.26468-4.37151-3.27712-7.05395C1.04441 5.8501 1 5.607 1 5.33876Zm16.0126 6.51334c-.373 0-.7105-.0964-1.0125-.2892-.3019-.1928-.4529-.4569-.4529-.7922V4.98669c0-.33531-.0888-.57421-.2664-.71672-.1776-.1425-.4885-.21376-.9325-.21376l-1.5187.0503c-.7638 0-1.341.12574-1.7318.37722.7815.35207 1.1723.92209 1.1723 1.71006v4.42601c-.0355.4192-.2132.767-.5329 1.0437-.3197.2766-.6749.4149-1.0657.4149-.5329 0-.9414-.2431-1.22559-.7293-1.38545-1.97829-2.41566-3.856-3.09062-5.63312l-.23979-.65385-3.54355-.02515c-.23091 0-.35968.01258-.38633.03772-.02664.02515-.03996.0964-.03996.21376 0 .15089.01776.31016.05329.47781l.5595 1.40829c1.49203 3.63804 3.11282 6.50494 4.8624 8.60054 1.74957 2.0957 3.46805 3.1435 5.15545 3.1435h2.6643c.1066 0 .1865-.0293.2398-.088.0533-.0587.0977-.1718.1332-.3395l.0533-.2515.5063-2.213c.142-.3017.2664-.5029.373-.6035.1953-.1844.4263-.2766.6927-.2766.4263 0 .8614.243 1.3055.7292l2.2647 2.716c.1421.218.2931.3269.4529.3269h4.3961c.5329 0 .7993-.1257.7993-.3772 0-.0838-.0266-.1676-.0799-.2515l-3.8633-4.5517c-.3019-.3521-.4529-.7293-.4529-1.1317s.1421-.788.4263-1.1568c.2309-.3353.6794-.8927 1.3455-1.67233.6661-.77959 1.2478-1.50888 1.7451-2.18787.4974-.679.826-1.29512.9858-1.84838l.0799-.32692c-.0177-.03353-.0266-.08802-.0266-.16346s-.0089-.13831-.0266-.18861h-4.183c-.2665.10059-.4796.25148-.6395.45266l-.1598.47781c-.4441 1.15681-1.6075 2.94231-3.4903 5.3565-.373.3353-.8082.503-1.3055.503Z"/></svg>