<svg xmlns="http://www.w3.org/2000/svg" width="28" height="22" fill="none"><path fill="#666" d="m17.8509 10.7927-5.2364-3.49086a.65453.65453 0 0 0-.3308-.10725.6546.6546 0 0 0-.5907.31756.65501.65501 0 0 0-.093.33514v6.98181c.0001.119.0327.2357.0942.3376a.6538.6538 0 0 0 .2549.2406c.1033.0558.22.0822.3373.0764a.64288.64288 0 0 0 .3281-.1091l5.2364-3.4909a.65463.65463 0 0 0 .2149-.236.65401.65401 0 0 0 .0778-.3095.6543.6543 0 0 0-.0778-.3095.65463.65463 0 0 0-.2149-.236Zm-4.9418 2.8146V9.06911l3.4036 2.26909-3.4036 2.2691Zm12.48-8.56364a2.40023 2.40023 0 0 0-.5282-.99305 2.40022 2.40022 0 0 0-.9227-.64332C20.2182 1.9782 14.2509 2.00002 14 2.00002c-.2509 0-6.21818-.02182-9.93818 1.40727a2.4 2.4 0 0 0-1.45091 1.63637C2.32727 6.11275 2 8.07638 2 11.3382c0 3.2618.32727 5.2255.61091 6.2945a2.39974 2.39974 0 0 0 1.45091 1.6364c3.72 1.4291 9.68728 1.4073 9.93818 1.4073h.0764c.7527 0 6.3163-.0437 9.8618-1.4073.3542-.1383.6704-.3588.9227-.6433.2522-.2845.4333-.6249.5282-.9931.2836-1.069.6109-3.0327.6109-6.2945 0-3.26182-.3273-5.22545-.6109-6.29454ZM24.1236 17.3055a1.09055 1.09055 0 0 1-.2383.4493c-.1138.129-.2564.2292-.4162.2925-3.4909 1.3418-9.4036 1.32-9.4691 1.32-.0655 0-5.97818.0218-9.46909-1.32a1.08987 1.08987 0 0 1-.4162-.2925 1.09042 1.09042 0 0 1-.23835-.4493c-.26181-1.0037-.56727-2.8473-.56727-5.9673 0-3.12.30546-4.96363.56727-5.96727a1.09087 1.09087 0 0 1 .65455-.74182c3.49091-1.34182 9.40359-1.32 9.46909-1.32.0655 0 5.9782-.02182 9.4691 1.32.1598.06332.3024.16353.4162.29245a1.091 1.091 0 0 1 .2383.44937c.2619 1.00364.5673 2.84727.5673 5.96727s-.3054 4.9636-.5673 5.9673Z"/></svg>