<svg xmlns="http://www.w3.org/2000/svg" width="28" height="22"><path fill-rule="evenodd" d="M23.4608 3.15291a.65653.65653 0 0 1 .2264.61157L21.0611 19.5214a.65688.65688 0 0 1-.3866.4945.6564.6564 0 0 1-.6252-.0562l-7.8785-5.2523a.65665.65665 0 0 1-.2846-.4455.6569.6569 0 0 1 .1361-.5109l2.6107-3.2633-4.36 2.9067a.6566.6566 0 0 1-.65776.0409l-5.25231-2.6261c-.23524-.1177-.37758-.3643-.36173-.6268.01585-.26257.18684-.4903.43453-.57876L22.8188 3.03826a.65656.65656 0 0 1 .642.11465ZM6.32626 10.3228l3.53542 1.7677 7.56142-5.041c.2694-.17956.6294-.13601.8481.1026.2188.2386.231.60104.0288.85381l-4.805 6.00619 6.4378 4.2918 2.2755-13.65332L6.32626 10.3228Z" clip-rule="evenodd"/></svg>
