<svg xmlns="http://www.w3.org/2000/svg" width="30" height="32" fill="none"><g clip-path="url(#a)"><path fill="#fff" d="M27.7754 2.767c-.1003-.45-.4791-.767-.9113-.767h-.0056c-4.9378.033-16.94531.916-21.79312 8.38-2.51813 3.878-2.73469 8.913-.64406 14.965.01593.047.04875.079.07031.122-.74719 1.973-1.03688 3.286-1.04438 3.323-.10875.54.21469 1.072.72094 1.188a.88032.88032 0 0 0 .19688.022c.43218 0 .82125-.321.91593-.79.01969-.102 2.40844-10.373 10.8534-16.378.4313-.306.5475-.927.2597-1.387-.2878-.46-.869-.585-1.3003-.277-4.7887 3.405-7.73811 8.008-9.47248 11.656-1.24125-4.578-.91594-8.377.98625-11.305C10.351 5.755 19.2301 4.365 24.5898 4.071 23.4366 5.872 22.1766 9.174 22.1766 15c0 3.12-.8297 5.522-2.4647 7.14-2.6212 2.591-6.8793 2.834-9.99371 2.584-.5175-.045-.96656.371-1.00594.922-.03937.55.34782 1.03.86344 1.072.62341.051 1.28911.082 1.98091.082 3.1707 0 6.8691-.663 9.4294-3.194 2.0344-2.011 3.0656-4.906 3.0656-8.605 0-9.099 3.2157-11.096 3.2316-11.105.39-.209.5944-.677.4922-1.129Z"/></g><defs><clipPath id="a"><path fill="#fff" d="M0 0h30v32H0z"/></clipPath></defs></svg>