<svg xmlns="http://www.w3.org/2000/svg" width="26" height="31" fill="none"><path fill="#fff" d="M5.538 0c-1.063 0-1.063 1.583 0 1.583h6.643v1.604C5.38 3.62 0 9.414 0 16.485c0 4.01 1.743 7.63 4.496 10.069.479.422.542 1.171.107 1.636L3.072 29.74c-.744.686.361 1.752 1.031 1.003l1.998-2.037c.351-.338.872-.422 1.308-.211a12.702 12.702 0 0 0 11.065.063 1.14 1.14 0 0 1 1.297.211l1.935 1.974c.68.633 1.658-.317 1.041-1.003l-1.445-1.477c-.447-.454-.383-1.203.106-1.636a13.462 13.462 0 0 0 3.403-4.583A13.376 13.376 0 0 0 26 16.475c0-7.071-5.41-12.876-12.224-13.288V1.583h6.643c1.063 0 1.063-1.583 0-1.583H5.538ZM1.435 16.475c0-6.533 5.177-11.82 11.565-11.82 6.378 0 11.554 5.287 11.554 11.82 0 6.543-5.176 11.841-11.554 11.841S1.435 23.018 1.435 16.475ZM12.192 8.38c0-1.098 1.658-1.098 1.658 0v8.633c0 .224-.09.439-.249.597a.853.853 0 0 1-.601.247.811.811 0 0 1-.568-.23.8.8 0 0 1-.24-.561V8.38Zm-4.975 2.617c.308 0 .602-.12.82-.337a1.146 1.146 0 0 0 0-1.627 1.163 1.163 0 0 0-.82-.337c-.286.028-.553.16-.746.372a1.146 1.146 0 0 0 0 1.547c.193.212.46.344.746.372v.01Zm11.555 0c.307 0 .602-.12.82-.337a1.146 1.146 0 0 0 0-1.627 1.163 1.163 0 0 0-.82-.337c-.287.028-.553.16-.747.372a1.145 1.145 0 0 0 0 1.547c.194.212.46.344.747.372v.01ZM8.376 23.588c0 1.53-2.317 1.53-2.317 0s2.317-1.53 2.317 0ZM13 27.028a1.169 1.169 0 0 0 .89-.293 1.153 1.153 0 0 0 .38-.851c0-.16-.034-.32-.1-.466a1.152 1.152 0 0 0-.28-.386 1.162 1.162 0 0 0-.414-.24 1.165 1.165 0 0 0-.476-.053c-.287.027-.553.16-.747.371a1.146 1.146 0 0 0 0 1.547c.194.212.46.344.747.372ZM4.91 16.645a1.143 1.143 0 0 1-.053.473 1.149 1.149 0 0 1-.242.41 1.158 1.158 0 0 1-.389.279 1.166 1.166 0 0 1-.468.098c-.162 0-.322-.033-.47-.098a1.158 1.158 0 0 1-.388-.279 1.149 1.149 0 0 1-.242-.41 1.143 1.143 0 0 1-.054-.473c.028-.285.161-.55.374-.742a1.163 1.163 0 0 1 1.559 0c.213.193.346.457.374.742Zm17.327 1.15c.16.015.323-.003.476-.053a1.16 1.16 0 0 0 .414-.24 1.152 1.152 0 0 0 .38-.852c0-.16-.034-.319-.1-.466a1.15 1.15 0 0 0-.28-.385 1.159 1.159 0 0 0-.414-.24 1.166 1.166 0 0 0-.476-.054c-.287.027-.553.16-.747.371a1.146 1.146 0 0 0 0 1.548c.194.211.46.344.747.371Zm-2.307 5.805c0 1.52-2.317 1.52-2.317-.01s2.317-1.531 2.317 0v.01Z"/></svg>