<svg xmlns="http://www.w3.org/2000/svg" width="128" height="24" fill="none"><g fill="#111" clip-path="url(#a)"><path d="M1.60253 22.0513c-1.13417-1.6831-1.69719-3.701-1.6025-5.7436V7.79487c-.13735-2.06456.39041-4.11826 1.50235-5.84615C2.6041.61538 4.30676 0 6.81067 0c2.50391 0 4.10643.61538 5.10803 1.74359 1.0873 1.42896 1.6222 3.21822 1.5023 5.02564v2.05128H8.51333V6.46154c.03964-.69769-.06268-1.39621-.30047-2.05128-.1271-.26443-.32855-.48386-.57843-.63008-.24988-.14623-.53677-.21255-.82376-.19044-.70109 0-1.20188.20513-1.40219.71795-.22657.72874-.32823 1.49215-.30047 2.25641v10.9744c-.05289.7414.08526 1.4842.40063 2.1538.20031.5128.70109.718 1.40219.718.70109 0 1.10172-.2052 1.30203-.718.22772-.6931.32956-1.4231.30047-2.1538v-2.4616H13.421v2.0513c.1019 1.8369-.4299 3.6521-1.5023 5.1282-1.0016 1.2308-2.70427 1.8462-5.10803 1.8462-2.40375-.1026-4.20657-.718-5.20814-2.0513ZM19.3302.30762h5.7089l4.2066 23.38458h-4.6072l-.8012-4.923h-3.3052l-.8012 4.923h-4.7074L19.3302.30762Zm4.1064 15.38458-1.2018-9.12817-1.2019 9.12817h2.4037ZM32.7511 4.20505h-3.4053V.30762h11.9187v3.79487h-3.4054V23.6922h-5.108V4.20505ZM50.3787.30762h8.8138v2.46154h-5.7089v7.69234h4.6072v2.3589h-4.6072v8.6154h5.7089v2.359h-8.9139V.30762h.1001ZM61.7966.30762H64l6.5102 15.48718V.30762h2.6041V23.6922h-2.0032L64.5008 7.69223V23.6922h-2.7042V.30762ZM76.119.30762h8.8137v2.46154h-5.7089v7.69234h4.6072v2.3589h-4.6072v8.6154h5.7089v2.359H76.119V.30762ZM87.5368.3076h4.6072c1.8124-.1282 3.6135.37811 5.108 1.4359 1.1017.92307 1.6025 2.5641 1.6025 4.71795 0 2.97435-.9014 4.82055-2.8044 5.43585l3.205 11.6924h-3.1048l-3.0047-10.9744h-2.504v10.9744h-3.205V.3076h.1002Zm4.4069 10.0513c1.0325.0871 2.0617-.2036 2.9045-.82053.601-.51282.9014-1.53846.9014-3.07692.0278-.76426-.0739-1.52767-.3004-2.25641-.2255-.52293-.6126-.9554-1.1018-1.23077-.6898-.32191-1.4471-.4629-2.2034-.41026h-1.4022v7.69229h1.2019v.1026ZM102.861 21.9489c-1.041-1.7933-1.53-3.8665-1.403-5.9487V8.20531c-.024-1.48631.144-2.96939.501-4.41025.335-1.0767 1.003-2.01263 1.903-2.66667 1.119-.67787 2.409-.99923 3.706-.92308 2.103 0 3.606.51282 4.507 1.64103 1.037 1.48973 1.533 3.30368 1.402 5.12821v.82051h-3.004v-.71795c.004-.85898-.063-1.71679-.201-2.5641-.084-.53545-.372-1.01485-.801-1.33334-.563-.37839-1.231-.55843-1.903-.51282-.718-.04712-1.429.17124-2.003.61539-.236.2033-.428.4537-.566.73587-.138.28218-.218.59018-.235.90515-.132.91691-.199 1.84241-.201 2.76923v8.71791c-.073 1.3282.131 2.6572.601 3.8975.401.8205 1.202 1.1282 2.404 1.1282.475.0605.956-.024 1.384-.243.427-.219.782-.5627 1.02-.9878.529-1.297.769-2.6986.701-4.1026v-1.641h-2.905v-2.3589h5.809v11.5897h-2.003l-.3-2.6667c-.263.8937-.81 1.6719-1.554 2.2108-.744.539-1.642.8077-2.553.7636-.827.0498-1.654-.1115-2.406-.4695-.751-.358-1.404-.9016-1.9-1.5818ZM119.988 15.4871 115.08.41016h3.005l3.505 11.28204L124.995.41016H128l-4.908 15.07694v8.2051h-3.004v-8.2051h-.1Z"/></g><defs><clipPath id="a"><path fill="#fff" d="M0 0h128v24H0z"/></clipPath></defs></svg>