<svg xmlns="http://www.w3.org/2000/svg" width="28" height="22" fill="none"><path fill="#666" d="m17.85 10.793-5.236-3.491a.655.655 0 0 0-.33-.107.655.655 0 0 0-.591.317.655.655 0 0 0-.093.335v6.982c0 .12.033.236.094.338a.654.654 0 0 0 .255.24c.103.056.22.083.337.077a.643.643 0 0 0 .329-.11l5.236-3.49a.655.655 0 0 0 .215-.236.654.654 0 0 0 .078-.31.654.654 0 0 0-.078-.31.655.655 0 0 0-.215-.235Zm-4.94 2.814V9.07l3.403 2.27-3.404 2.268Zm12.48-8.563a2.4 2.4 0 0 0-.53-.993 2.4 2.4 0 0 0-.922-.644C20.218 1.978 14.251 2 14 2c-.25 0-6.218-.022-9.938 1.407A2.4 2.4 0 0 0 2.61 5.044C2.327 6.113 2 8.076 2 11.338c0 3.262.327 5.226.61 6.295a2.4 2.4 0 0 0 1.452 1.636c3.72 1.43 9.687 1.407 9.938 1.407h.076c.753 0 6.317-.043 9.862-1.407a2.4 2.4 0 0 0 1.451-1.636c.284-1.07.611-3.033.611-6.295s-.327-5.225-.61-6.294Zm-1.266 12.261a1.09 1.09 0 0 1-.239.45 1.09 1.09 0 0 1-.416.292c-3.49 1.342-9.404 1.32-9.469 1.32-.065 0-5.978.022-9.47-1.32a1.09 1.09 0 0 1-.415-.292 1.09 1.09 0 0 1-.239-.45c-.261-1.003-.567-2.847-.567-5.967 0-3.12.306-4.963.567-5.967a1.09 1.09 0 0 1 .655-.742C8.02 3.287 13.935 3.31 14 3.31c.066 0 5.978-.022 9.47 1.32.159.063.302.164.415.293a1.091 1.091 0 0 1 .239.449c.262 1.004.567 2.847.567 5.967s-.305 4.964-.567 5.967Z"/></svg>