<svg xmlns="http://www.w3.org/2000/svg">

<!-- Goals section -->
<symbol viewBox="0 0 32 12" id="goals-arrow">
<line y1="6" x2="18" y2="6" stroke="black" stroke-width="2"/>
<path d="M24 6L17.25 11.1962L17.25 0.803848L24 6Z" fill="black"/>
</symbol>

<!-- Work section -->
<symbol viewBox="0 0 30 32" id="work-leaf">
<g clip-path="url(#a)"><path fill="#fff" d="M28.34 2.77a.95.95 0 0 0-.9-.77h-.01c-4.94.03-16.95.92-21.8 8.38C3.12 14.26 2.9 19.29 5 25.34l.07.13a25.93 25.93 0 0 0-1.04 3.32c-.11.54.21 1.07.72 1.19l.2.02c.43 0 .81-.32.9-.79.03-.1 2.42-10.37 10.86-16.38.43-.3.55-.93.26-1.38a.9.9 0 0 0-1.3-.28c-4.79 3.4-7.74 8-9.47 11.65-1.24-4.57-.92-8.37.99-11.3 3.74-5.76 12.62-7.15 17.98-7.45C24 5.87 22.75 9.17 22.75 15c0 3.12-.83 5.52-2.47 7.14-2.62 2.6-6.88 2.83-10 2.58-.51-.04-.96.38-1 .93-.04.55.35 1.03.86 1.07.63.05 1.3.08 1.98.08 3.18 0 6.87-.66 9.43-3.2 2.04-2 3.07-4.9 3.07-8.6 0-9.1 3.22-11.1 3.23-11.1.4-.21.6-.68.5-1.13Z"/></g><defs><clipPath id="a"><path fill="#fff" d="M.5 0h30v32H.5z"/></clipPath></defs>
</symbol>

<symbol viewBox="0 0 26 29" id="work-powder">
<path d="M10.875 0C9.24375 0 7.975 1.35937 7.975 3.08125C7.975 4.80312 9.24375 6.1625 10.875 6.1625C12.5062 6.1625 13.775 4.80312 13.775 3.08125C13.775 1.35937 12.5062 0 10.875 0ZM10.875 1.17812C11.8719 1.17812 12.5969 2.02094 12.5969 3.08125C12.5969 4.07812 11.8084 4.98438 10.875 4.98438C9.87812 4.98438 9.15313 4.14156 9.15313 3.08125C9.15313 2.08437 9.9325 1.17812 10.875 1.17812V1.17812ZM0 24.7406C0 25.9188 0.407813 26.9156 1.35938 27.7313C2.35625 28.5831 3.53438 28.5106 3.53438 28.5106H22.5656C23.345 28.5106 24.3781 28.13 25.1937 27.0606C26.0366 26.0638 25.9822 24.7044 25.9822 24.7044V7.48563C25.9822 7.05063 25.8734 6.8875 25.2391 6.8875C24.6047 6.8875 24.5503 7.15938 24.5503 7.47656V24.6953C24.5322 24.9944 24.4778 25.7828 23.8072 26.4172C23.0731 27.0425 22.3572 26.9609 22.3572 26.9609C22.3572 26.9609 4.23219 26.9609 3.32594 26.9337C2.98156 26.8703 2.41969 26.7434 1.87594 26.0275C1.36844 25.3025 1.46812 24.3963 1.46812 24.3963V7.1775C1.46812 6.71531 1.2325 6.54313 0.743125 6.54313C0.25375 6.54313 0 6.71531 0 7.12313V24.7406ZM16.3125 8.42813C15.225 8.66375 14.1375 8.80875 12.0531 10.7844C9.96875 12.7781 8.42813 12.6875 6.8875 12.5969C5.34688 12.5063 3.71563 11.0563 3.44375 10.6938C3.10844 10.3403 2.5375 10.5759 2.35625 10.8116C2.20219 11.0472 2.20219 11.455 2.465 11.8084C3.73375 12.9866 4.91188 13.8928 7.1775 14.0741C9.44313 14.2916 11.6181 13.2675 13.0681 11.8084C14.5181 10.3584 15.2431 10.0866 16.3306 9.90531C18.9588 9.48844 20.4994 10.5216 21.4056 11.1741C22.4025 12.2616 22.6744 11.9534 22.9462 11.6453C23.49 10.9294 22.7197 10.3766 21.8588 9.74219C20.0463 8.56406 18.3244 8.11094 16.3306 8.47344L16.3125 8.42813ZM7.25 15.5875C6.07188 15.5875 5.16562 16.5844 5.16562 17.8531C5.16562 19.1219 6.07188 20.1188 7.25 20.1188C8.42812 20.1188 9.33438 19.1219 9.33438 17.8531C9.33438 16.5844 8.42812 15.5875 7.25 15.5875ZM19.0312 16.3669C17.4906 16.3669 16.2219 17.7263 16.2219 19.3575C16.2219 20.9888 17.4906 22.3481 19.0312 22.3481C20.5719 22.3481 21.8406 20.9888 21.8406 19.3575C21.8406 17.7263 20.5719 16.3669 19.0312 16.3669ZM19.0312 17.8169C19.8287 17.8169 20.4813 18.5147 20.4813 19.3575C20.4813 20.2184 19.8287 20.8981 19.0312 20.8981C18.2338 20.8981 17.5812 20.2003 17.5812 19.3575C17.5812 18.4966 18.2338 17.8169 19.0312 17.8169Z" fill="white"/>

</symbol>

<symbol viewBox="0 0 25 30" id="work-meal">
<path fill="#fff" fill-rule="evenodd" d="M18.62.08a1 1 0 0 1 1.09.21c.9.91 2.1 2.88 3.06 5.92A42.6 42.6 0 0 1 24.5 19a1 1 0 0 1-1 1H20v9a1 1 0 1 1-2 0V1a1 1 0 0 1 .62-.92ZM20 18h2.5a39.62 39.62 0 0 0-1.64-11.19 22.4 22.4 0 0 0-.86-2.3V18ZM6 0a1 1 0 0 1 1 1v28a1 1 0 1 1-2 0V1a1 1 0 0 1 1-1Z" clip-rule="evenodd"/><path fill="#fff" fill-rule="evenodd" d="M1.5 0a1 1 0 0 1 1 1v5.5c0 .56.2 1.32.7 1.92.48.56 1.31 1.08 2.8 1.08a1 1 0 1 1 0 2 5.41 5.41 0 0 1-4.33-1.8A5.07 5.07 0 0 1 .5 6.5V1a1 1 0 0 1 1-1Z" clip-rule="evenodd"/><path fill="#fff" fill-rule="evenodd" d="M10.5 0a1 1 0 0 0-1 1v5.5c0 .56-.2 1.32-.7 1.92C8.32 8.98 7.49 9.5 6 9.5a1 1 0 0 0 0 2c2.01 0 3.43-.73 4.33-1.8a5.07 5.07 0 0 0 1.17-3.2V1a1 1 0 0 0-1-1Z" clip-rule="evenodd"/>
</symbol>

<symbol viewBox="0 0 26 31" id="work-time">
<path fill="#fff" d="M5.54 0c-1.06 0-1.06 1.58 0 1.58h6.64v1.6C5.38 3.63 0 9.42 0 16.49c0 4.02 1.74 7.64 4.5 10.07.47.43.54 1.18.1 1.64l-1.53 1.55c-.74.69.36 1.75 1.03 1l2-2.03c.35-.34.87-.43 1.3-.21a12.7 12.7 0 0 0 11.07.06c.43-.21.96-.13 1.3.21l1.94 1.97c.68.64 1.65-.31 1.04-1l-1.45-1.48c-.44-.45-.38-1.2.1-1.63A13.46 13.46 0 0 0 26 16.47C26 9.4 20.59 3.6 13.78 3.2v-1.6h6.64c1.06 0 1.06-1.59 0-1.59H5.54Zm-4.1 16.47A11.7 11.7 0 0 1 13 4.65c6.38 0 11.55 5.3 11.55 11.82 0 6.55-5.17 11.85-11.55 11.85-6.38 0-11.57-5.3-11.57-11.85Zm10.75-8.09c0-1.1 1.66-1.1 1.66 0v8.63a.84.84 0 0 1-.85.85.81.81 0 0 1-.8-.8V8.39ZM7.22 11a1.16 1.16 0 0 0 1.16-1.15A1.15 1.15 0 0 0 7.22 8.7a1.16 1.16 0 0 0-1.05 1.14A1.15 1.15 0 0 0 7.22 11Zm11.55 0a1.16 1.16 0 0 0 1.16-1.15 1.15 1.15 0 0 0-1.16-1.15 1.16 1.16 0 0 0-1.05 1.14A1.15 1.15 0 0 0 18.77 11ZM8.37 23.59c0 1.53-2.31 1.53-2.31 0s2.32-1.53 2.32 0ZM13 27.03a1.17 1.17 0 0 0 1.17-.68 1.14 1.14 0 0 0-.7-1.56 1.17 1.17 0 0 0-1.22.32 1.15 1.15 0 0 0 .75 1.92ZM4.91 16.64a1.14 1.14 0 0 1-.68 1.17 1.17 1.17 0 0 1-1.57-.7 1.14 1.14 0 0 1 .32-1.2 1.16 1.16 0 0 1 1.93.73Zm17.33 1.15a1.16 1.16 0 0 0 1.17-.68 1.14 1.14 0 0 0-.7-1.55 1.17 1.17 0 0 0-1.22.32 1.15 1.15 0 0 0 .75 1.91Zm-2.31 5.8c0 1.53-2.32 1.53-2.32 0s2.32-1.53 2.32 0Z"/>
</symbol>

<!-- Socials section -->
<symbol viewBox="0 0 28 17" id="socials-vk">
<path fill="#666" d="M.5 2.34c0-.86.52-1.32 1.55-1.38l3.97.02c.26 0 .44.13.53.38.4 1.26.86 2.34 1.37 3.25.5.92 1.17 1.97 1.99 3.16.07.15.18.23.34.23.13 0 .22-.06.3-.18l.07-.28.03-4.35c0-.3-.07-.5-.23-.6-.15-.1-.43-.18-.83-.23-.32-.05-.48-.23-.48-.55 0-.07 0-.12.02-.15C9.51.57 10.57.03 12.33.03l1.5-.03c.67 0 1.23.16 1.67.48.44.32.67.82.67 1.5V7.7c.12.08.24.12.34.12.27 0 .5-.15.7-.45 1.95-2.58 3-4.31 3.17-5.18 0-.02.01-.06.05-.13.12-.25.33-.47.61-.65.29-.19.53-.31.75-.38a.55.55 0 0 1 .24-.05h4.13l.26.03c.36 0 .63.16.83.47.07.1.12.21.15.33a2.4 2.4 0 0 1 .06.55v.18a6.11 6.11 0 0 1-.94 2.2c-.5.78-1.15 1.62-1.93 2.53-.79.9-1.27 1.5-1.47 1.78-.16.2-.24.39-.24.56 0 .13.07.28.21.45l3.9 4.63c.2.26.31.56.31.88 0 .38-.16.7-.48.95-.32.25-.7.4-1.14.43l-.46.02h-4.04c-.02 0-.06 0-.11.02a.86.86 0 0 1-.1.01c-.4 0-.76-.16-1.1-.48-.12-.13-.96-1.12-2.5-2.97a1.39 1.39 0 0 0-.38-.32 38.47 38.47 0 0 0-.53 2.24l-.08.42a1.4 1.4 0 0 1-1.12 1.06l-.37.02h-2.61c-1.48 0-2.95-.63-4.41-1.9a19.3 19.3 0 0 1-3.96-4.95A47.51 47.51 0 0 1 .63 3.07a1.92 1.92 0 0 1-.13-.73Zm16.01 6.51c-.37 0-.7-.1-1.01-.29a.9.9 0 0 1-.45-.79V2c0-.34-.1-.58-.27-.72-.18-.14-.49-.21-.93-.21l-1.52.05c-.76 0-1.34.12-1.73.37.78.36 1.17.93 1.17 1.71v4.43a1.5 1.5 0 0 1-.53 1.04c-.32.28-.68.42-1.07.42-.53 0-.94-.24-1.22-.73a26.16 26.16 0 0 1-3.1-5.63l-.23-.66-3.55-.02c-.23 0-.36.01-.38.03-.03.03-.04.1-.04.22 0 .15.01.3.05.48l.56 1.4c1.49 3.64 3.11 6.51 4.86 8.6 1.75 2.1 3.47 3.15 5.16 3.15h2.66c.1 0 .19-.03.24-.09.05-.06.1-.17.13-.34l.06-.25.5-2.21c.15-.3.27-.5.38-.6.2-.2.42-.28.69-.28.43 0 .86.24 1.3.73l2.27 2.71c.14.22.3.33.45.33h4.4c.53 0 .8-.13.8-.38a.47.47 0 0 0-.08-.25l-3.87-4.55c-.3-.35-.45-.73-.45-1.13 0-.4.14-.8.43-1.16.23-.34.68-.9 1.34-1.67.67-.78 1.25-1.51 1.75-2.19.5-.68.82-1.3.98-1.85l.08-.33a.37.37 0 0 1-.02-.16c0-.07-.01-.14-.03-.19h-4.18c-.27.1-.48.25-.64.45L21.3 3c-.45 1.16-1.6 2.94-3.5 5.36-.36.33-.8.5-1.3.5Z"/>
</symbol>

<symbol viewBox="0 0 25 19" id="socials-youtube">
<path fill="#666" d="m16.35 8.8-5.24-3.5a.65.65 0 0 0-1.01.55v6.98a.65.65 0 0 0 1.01.54l5.24-3.49a.65.65 0 0 0 0-1.09Zm-4.94 2.8V7.08l3.4 2.27-3.4 2.27Zm12.48-8.56a2.4 2.4 0 0 0-1.45-1.63C18.72-.02 12.75 0 12.5 0S6.28-.02 2.56 1.4a2.4 2.4 0 0 0-1.45 1.64 25.32 25.32 0 0 0-.61 6.3c0 3.26.33 5.22.61 6.3a2.4 2.4 0 0 0 1.45 1.63c3.72 1.43 9.69 1.4 9.94 1.4h.08c.75 0 6.31-.04 9.86-1.4a2.4 2.4 0 0 0 1.45-1.64c.28-1.07.61-3.03.61-6.3 0-3.25-.33-5.22-.61-6.29Zm-1.27 12.27a1.1 1.1 0 0 1-.65.74c-3.5 1.34-9.4 1.32-9.47 1.32-.07 0-5.98.02-9.47-1.32a1.09 1.09 0 0 1-.65-.74c-.27-1-.57-2.85-.57-5.97 0-3.12.3-4.97.57-5.97a1.1 1.1 0 0 1 .65-.74c3.5-1.34 9.4-1.32 9.47-1.32.07 0 5.98-.02 9.47 1.32a1.1 1.1 0 0 1 .65.74c.27 1 .57 2.85.57 5.97 0 3.12-.3 4.96-.57 5.97Z"/>
</symbol>

<symbol viewBox="0 0 21 18" id="socials-telegram">
<path fill="#666" fill-rule="evenodd" d="M19.96.15c.18.15.27.38.23.61l-2.63 15.76a.66.66 0 0 1-1.01.44l-7.88-5.25a.66.66 0 0 1-.15-.96l2.61-3.26-4.36 2.9a.66.66 0 0 1-.65.05L.86 7.8a.66.66 0 0 1 .08-1.2L19.32.03a.66.66 0 0 1 .64.11ZM2.83 7.32 6.36 9.1l7.56-5.04a.66.66 0 0 1 .88.96L10 11l6.43 4.3 2.28-13.66L2.83 7.32Z" clip-rule="evenodd"/>
</symbol>

<!-- Copyright section -->
<symbol viewBox="0 0 27 34" id="academy-icon">
<path fill="#666" d="M13.64.02 13.5 0 0 1.4v24.61L13.5 34 27 26.01V1.41L13.64 0Zm11.6 25L13.5 31.96 1.77 25.02v-10.1l11.68 6.93.02 1.25-8.02-4.75v1.23l8.04 4.8.02 1.3-8.05-4.76v1.22l8.04 4.81 8.12-4.83V16.9l3.62-2.15v10.26Zm0-11.57L22 15.33l-1.48.88-7.06-4.19-.01 1.23 6.04 3.57-.06.03-.13.07-.86.5-4.98-2.95-.01 1.22 3.93 2.33-.93.61-.02.01-2.97-1.74-.01 1.23 1.94 1.13-1.98 1.19L1.8 13.58l11.63-6.96 11.8 6.83Zm0-1.22L13.43 5.3 1.77 12.22V2.99L13.5 1.76 25.23 3v9.24Z"/>
</symbol>

<!-- Footer Cat Energy logo -->
<symbol viewBox="0 0 129 24" id="footer-logo">
<g fill="#111" clip-path="url(#a)"><path d="M2.1 22.05a9.5 9.5 0 0 1-1.6-5.74V7.79A9.63 9.63 0 0 1 2 1.95C3.1.62 4.8 0 7.31 0c2.5 0 4.1.62 5.1 1.74a7.49 7.49 0 0 1 1.51 5.03v2.05h-4.9V6.46c.03-.7-.07-1.4-.3-2.05a1.46 1.46 0 0 0-.59-.63 1.41 1.41 0 0 0-.82-.19c-.7 0-1.2.2-1.4.72-.23.73-.33 1.49-.3 2.25v10.98c-.05.74.08 1.48.4 2.15.2.52.7.72 1.4.72s1.1-.2 1.3-.72c.23-.7.33-1.42.3-2.15v-2.46h4.91v2.05a7.98 7.98 0 0 1-1.5 5.13c-1 1.23-2.7 1.84-5.1 1.84-2.41-.1-4.22-.72-5.22-2.05ZM19.83.3h5.7l4.22 23.4h-4.61l-.8-4.93h-3.3l-.8 4.92h-4.72L19.83.31Zm4.1 15.4-1.2-9.14-1.2 9.13h2.4ZM33.25 4.2h-3.4V.3h11.91v3.8h-3.4v19.6h-5.1V4.2ZM50.88.3h8.81v2.47H54v7.7h4.6v2.35H54v8.62h5.7v2.35h-8.91V.31h.1ZM62.3.3h2.2l6.51 15.5V.3h2.6v23.4h-2l-6.6-16v16H62.3V.3ZM76.62.3h8.81v2.47h-5.7v7.7h4.6v2.35h-4.6v8.62h5.7v2.35h-8.81V.31ZM88.04.3h4.6a7.87 7.87 0 0 1 5.11 1.44c1.1.93 1.6 2.57 1.6 4.72 0 2.98-.9 4.82-2.8 5.44l3.2 11.69h-3.1l-3-10.97h-2.5v10.97h-3.21V.31h.1Zm4.4 10.06a4.3 4.3 0 0 0 2.9-.82c.6-.51.91-1.54.91-3.08a6.77 6.77 0 0 0-.3-2.25 2.58 2.58 0 0 0-1.1-1.24 4.47 4.47 0 0 0-2.2-.4h-1.4v7.69h1.2v.1ZM103.36 21.95a10.57 10.57 0 0 1-1.4-5.95V8.2c-.03-1.48.14-2.96.5-4.4a5.2 5.2 0 0 1 1.9-2.67c1.12-.68 2.41-1 3.7-.92 2.11 0 3.61.5 4.52 1.64a7.98 7.98 0 0 1 1.4 5.12v.82h-3v-.71c0-.86-.07-1.72-.2-2.57a2.06 2.06 0 0 0-.8-1.33 3.04 3.04 0 0 0-1.91-.51 2.96 2.96 0 0 0-2 .61 2.3 2.3 0 0 0-.8 1.64c-.14.92-.2 1.85-.2 2.77v8.72a9.53 9.53 0 0 0 .6 3.9c.4.82 1.2 1.13 2.4 1.13a2.37 2.37 0 0 0 2.4-1.23c.53-1.3.77-2.7.7-4.1v-1.65h-2.9V12.1h5.8v11.6h-2l-.3-2.67c-.26.89-.8 1.67-1.55 2.2-.74.55-1.64.81-2.55.77a4.9 4.9 0 0 1-4.3-2.05ZM120.49 15.49 115.58.4h3l3.51 11.28 3.4-11.28h3.01l-4.9 15.08v8.2h-3.01v-8.2h-.1Z"/></g><defs><clipPath id="a"><path fill="#fff" d="M.5 0h128v24H.5z"/></clipPath></defs>
</symbol>


<!-- Additional > Products section -->
<symbol viewBox="0 0 60 60" id="products-plus">
<line x1="31" x2="31" y2="60" stroke="#D3D3D3" stroke-width="2"/>
<line x1="60" y1="31" y2="31" stroke="#D3D3D3" stroke-width="2"/>
</symbol>


<!-- Additional > Gift section -->
<symbol viewBox="0 0 78 80" id="gift-icon">
<path fill="#fff" d="M64.016 34.713H14.03c-1.754 0-3.182-1.418-3.182-3.16v-9.469c0-1.742 1.428-3.16 3.182-3.16h49.984c1.754 0 3.18 1.418 3.18 3.16v9.469c0 1.742-1.426 3.16-3.18 3.16ZM14.03 21.346a.751.751 0 0 0-.744.738v9.469c0 .407.334.738.744.738h49.984c.41 0 .743-.331.743-.738v-9.469a.75.75 0 0 0-.743-.738H14.03Z"/><path fill="#fff" d="M57.045 67.149H20.999c-3.377 0-6.125-2.73-6.125-6.086V33.502c0-.669.546-1.212 1.219-1.212s1.219.543 1.219 1.212v27.56c0 2.021 1.654 3.665 3.687 3.665h36.046c2.032 0 3.686-1.644 3.686-3.664V33.502c0-.669.546-1.212 1.219-1.212.672 0 1.218.543 1.218 1.212v27.56c0 3.357-2.747 6.087-6.123 6.087Z"/><path fill="#fff" d="M39.023 67.149a1.215 1.215 0 0 1-1.22-1.211V33.502c0-.669.547-1.212 1.22-1.212.672 0 1.218.543 1.218 1.212v32.435c0 .67-.545 1.212-1.218 1.212ZM23.811 21.341c-3.814-2.054-5.238-6.808-3.173-10.6 2.064-3.789 6.848-5.204 10.665-3.154 5.814 3.13 8.954 11.86 9.084 12.23l-2.3.804c-.029-.083-2.961-8.222-7.944-10.904-2.635-1.415-5.937-.438-7.36 2.177-1.426 2.618-.444 5.9 2.19 7.318l-1.162 2.13Z"/><path fill="#fff" d="m54.231 21.341-1.16-2.13a5.376 5.376 0 0 0 2.622-3.207 5.327 5.327 0 0 0-.431-4.109 5.382 5.382 0 0 0-3.226-2.604 5.426 5.426 0 0 0-4.134.426c-4.982 2.682-7.915 10.82-7.944 10.903l-2.3-.803c.131-.37 3.27-9.101 9.084-12.23a7.859 7.859 0 0 1 5.99-.617 7.8 7.8 0 0 1 4.674 3.771 7.72 7.72 0 0 1 .623 5.953 7.788 7.788 0 0 1-3.798 4.647ZM61.95 50.931H16.093a1.215 1.215 0 0 1-1.219-1.21c0-.67.546-1.212 1.219-1.212H61.95c.672 0 1.218.543 1.218 1.211 0 .669-.545 1.211-1.218 1.211Z"/>
</symbol>


<!-- Owner section -->
<symbol viewBox="0 0 20 20" id="owner-email" fill="none">
<path stroke="#000" stroke-linecap="round" stroke-linejoin="round" d="M1.5 8.5v8h17v-8m-17-5h17v2l-8.5 6-8.5-6v-2Z"/>
</symbol>

<symbol viewBox="0 0 20 20" id="owner-phone" fill="none">
<path stroke="#000" stroke-linecap="round" stroke-linejoin="round" d="M10 10h8.5m0 0L16 7.5m2.5 2.5L16 12.5m-7.5-10v5h-3v5h3v5H6c-1.5 0-2.5-1-2.5-2.5V5c0-1.5 1-2.5 2.5-2.5h2.5Z"/>
</symbol>

<!-- Goals section -->
<symbol viewBox="0 0 100 106" id="goals-slim" fill="none">
<circle cx="50" cy="56" r="50" fill="#68B738"/><g clip-path="url(#a)"><path fill="#000" d="M69.8 0h-.3c-.7.4-1.2 1-1.5 1.6-.6 1-1 2.2-1.3 3.4a1.6 1.6 0 0 1-1.5 1.3 7.3 7.3 0 0 0-5.2 3.8l-1.9 4c-1.4 3.7-2.5 7.5-3.8 11.2-.6 1.7-.7 1.7-2.6 1.7-2.2 0-2-.4-2.1 2.1 0 .8.2 1.2 1 1.2.3 0 .7-.1.8.2.1.4-.2.5-.4.7a9 9 0 0 1-4.3 2.4L41 35.2a28.6 28.6 0 0 0-12.6 7.5 28 28 0 0 0-4.7 7.9c-3.7 8.6-5.5 17.7-6.9 27-.6 4.2-1 8.6-1.4 13-.2 2-.4 4.2-.4 6.4h33.3c0-.4 0-.9-.2-1.3a5 5 0 0 0-3.8-3c-.7-.2-.8-.4-.4-1 .7-1 1.3-2 1.6-3 1.6-4.9 2.3-9.9 3-14.9A30 30 0 0 1 52 63c1.4-2.5 3.3-4.6 5.6-6.4.8-.6.9-.6 1 .5l.2 2.1c.3 4.8.2 9.5-.2 14.2A61.7 61.7 0 0 0 60.7 97H74a5.4 5.4 0 0 0-4.2-4.4 9 9 0 0 0-3.8.2c-.6.1-.8 0-.9-.7-.4-5.3 0-10.6 1-15.8 1.3-6 2.4-12 3-18.2.3-2.5 1.1-4.8 2.3-7l3.4-6.4a5.9 5.9 0 0 0 .5-5.2l-.9-2.1-3-5.9c-.4-1-.3-1.1.8-1.1 1.6 0 1.6 0 1.6-1.7v-.6c0-.7-.2-1.1-1-1h-1.5c-.7 0-.9-.3-.7-1a6.2 6.2 0 0 1 5.1-4.5 22 22 0 0 1 6.7.5 1 1 0 0 0 1.2-.7 77.4 77.4 0 0 1 1.4-3.6A35.6 35.6 0 0 0 72.8 6.5l-.3-.6c-.2-1.4-.7-2.8-1.3-4.2C71 1 70.5.4 69.8 0Z"/></g><defs><clipPath id="a"><path fill="#fff" d="M15 0h70v97H15z"/></clipPath></defs>
</symbol>

<symbol viewBox="0 0 134 100" id="goals-gain" fill="none">
<circle cx="69" cy="50" r="50" fill="#68B738"/><g clip-path="url(#a)"><path fill="#000" d="M123.1 25.8c1.2-1.9 2.7-3.4 4.5-4.6 1-.7 1.6-.7 2.2.6.8 1.9 1.5 3.9 1 6a2.3 2.3 0 0 0 .3 2l1.6 2.4a6.3 6.3 0 0 1 1 6.2c-.4 1-.5 2-.3 3s.2 2 0 3a3.8 3.8 0 0 1-2.7 3.3c-1.3.2-2.4 1-3.2 2a1 1 0 0 1-.9.5c-1.2.2-4.2-2.5-4.2-3.7v-.6c.1-3.6 0-4-3.4-5.4-.7-.3-1.3-.7-1.8-1.2-.6-.8-1.4-.7-2.3-.4-.9.3-1.4.9-1.3 1.9.3 2.4.4 4.8.3 7.3 0 .2 0 .5.2.8 3.1 4.5 4.3 9.8 5.8 14.9 1.2 3.9 3.4 6 7.4 6.3.7 0 1.3.1 2 .3a4.2 4.2 0 0 1 3.3 3.2c.7 2 .3 2.6-1.8 2.6h-6.5c-.8 0-1.6-.3-2.3-.8-1-.9-2.1-1.6-3.4-2a7.3 7.3 0 0 1-3.4-2.6 28.6 28.6 0 0 0-4-4.5c-2.8-3-5.8-5.7-8.4-8.7-2-2-3.1-4.8-3.2-7.6 0-1-.2-1.3-1.2-1a2 2 0 0 1-1 .4c-2.8 0-4.2 1.7-5.2 4.2-.9 2-2 4-3.2 6.2-.6 1.3-1 2.7-1 4.2 0 2.4.6 3.2 2.8 4 1.4.5 2.7 1 3.4 2.4.8 1.6.6 2-1 2h-6.9a1.9 1.9 0 0 1-1.9-1l-1.8-3A6 6 0 0 1 82 63c.5-1.8.5-3.6.1-5.3a8.4 8.4 0 0 1 1.7-7c.6-.7.6-1-.4-1.2a50 50 0 0 1-11.9-4.2c-3.2-1.2-3.8-1-4.7 2.3-.8 2.8-1.6 5.6-2.2 8.5a17 17 0 0 0 1.1 9.2c.4 1.2 1.6 1 2.5 1.4 2 .6 3.7 1.4 4.5 3.5.7 1.6.6 1.8-1 1.8h-5.3c-1.5 0-3-.5-4.2-1.4-4.8-3.2-6.2-8.1-6.6-13.4-.2-3.3-2-6-4-8.4-.5-.5-.9-.7-1.5-.3a44.3 44.3 0 0 1-6.7 3c-4.8 1.7-9 4.7-12.2 8.8-1.2 1.4-2 3.2-2.2 5-.3 1.9.2 2.7 2 3.2s2.7 1.5 3 3.4c0 .8-.3 1.2-1 1.2h-8.2a1.6 1.6 0 0 1-1.3-.8 8.6 8.6 0 0 1-1.9-5.5c0-3.5.3-7 1-10.3a6.3 6.3 0 0 1 3.3-4.8c6-2.8 9-8.1 11.8-13.6.6-1.1.1-1.3-.9-1.2-2.8.3-5.4 1.4-7.7 3.2-3 2.1-5.7 4.5-8.3 7a16.7 16.7 0 0 1-10.3 5C3.1 52.5-.3 48.4 0 41.8c0-2.3 1-4.5 2.4-6.1A4.2 4.2 0 0 1 7 34.2c1.5.4 2 1.2 1.3 2.7l-1 1.7c-.4.6-.8 1.2-1 2-1 3 .4 5 3.5 5.4 3.3.3 6-1.1 8.5-3.1a45 45 0 0 0 8-8.3 20.8 20.8 0 0 1 14.4-8.1c2.3-.3 4.3-1.3 6.5-2 4.1-1.2 8.4-1.8 12.7-1.7 2 0 4-.3 5.8-1.1 5-2 10-2 15.1-1 4 .8 8 1.8 12 2.8 2.2.4 4.6.3 7-.2 4.3-1.2 8.8-1.8 13.3-2 3-.2 6 .4 8.6 1.7 2 .9 2 .9 1.5 2.8Z"/></g><defs><clipPath id="a"><path fill="#fff" d="M0 20h134v56H0z"/></clipPath></defs>
</symbol>

</svg>
