<svg xmlns="http://www.w3.org/2000/svg"><circle cx="134" cy="100" r="100" fill="#68B738"/><g clip-path="url(#a)"><path d="M246.236 55.5137a30.40246 30.40246 0 0 1 9-9.2c2-1.4 3.2-1.4 4.4 1.2 1.6 3.8 3 7.8 1.8 12-.218.7123-.259 1.4672-.12 2.1991.14.7319.456 1.4187.92 2.0009 1.2 1.6 2.2 3.2 3.2 4.6a12.54118 12.54118 0 0 1 2.56 5.9591c.316 2.1764.054 4.3977-.76 6.4409a10.86469 10.86469 0 0 0-.4 6.2c.4 1.98.4 4.02 0 6a7.49354 7.49354 0 0 1-1.723 4.0238 7.50034 7.50034 0 0 1-3.677 2.3762 10.41897 10.41897 0 0 0-6.4 4.0003c-.188.307-.453.56-.769.735-.315.176-.67.267-1.031.265-2.4.4-8.4-5.0003-8.4-7.4003v-1.2c.2-7.2-.2-7.8-6.8-10.8-1.381-.4872-2.619-1.3122-3.6-2.4-1.2-1.6-2.8-1.4-4.6-.8-1.8.6-2.8 1.8-2.6 3.8.604 4.8417.804 9.7251.6 14.6003.014.556.15 1.103.4 1.6 6.2 9 8.6 19.6 11.6 29.8 2.4 7.8 6.8 12 14.8 12.6 1.281.102 2.551.302 3.8.6 1.644.264 3.171 1.015 4.383 2.156a8.31931 8.31931 0 0 1 2.417 4.244c1.4 4.2.6 5.2-3.6 5.2h-13c-1.683.085-3.333-.489-4.6-1.6-2.024-1.709-4.323-3.061-6.8-4-2.737-1.011-5.107-2.823-6.8-5.2-2.342-3.273-5.024-6.29-8-9-5.6-5.8-11.6-11.4-16.8-17.4-3.958-4.089-6.241-9.512-6.4-15.2 0-1.8-.4-2.6-2.4-1.8-.598.38-1.29.587-2 .6-5.6 0-8.4 3.4-10.4 8.4-1.8 4.2-4.2 8.2-6.4 12.4-1.247 2.629-1.928 5.491-2 8.4 0 4.8 1.2 6.4 5.6 8 2.8 1 5.4 2 6.8 4.8 1.6 3.2 1.2 4-2.2 4.2h-13.6c-.784.077-1.572-.093-2.254-.488-.682-.395-1.222-.994-1.546-1.712l-3.6-6c-1.061-1.566-1.74-3.358-1.983-5.234-.243-1.875-.043-3.782.583-5.566.866-3.473.934-7.097.2-10.6-.504-2.44-.46-4.961.128-7.382.588-2.421 1.705-4.682 3.272-6.618 1.2-1.4 1.2-2-.8-2.4-8.178-1.738-16.106-4.4923-23.6-8.2003-.053 0-.103-.0211-.141-.0586-.037-.0375-.059-.0884-.059-.1414-6.4-2.4-7.6-2-9.4 4.6-1.6 5.6003-3.2 11.2003-4.4 17.0003-1.4 6.4.2 12.4 2.2 18.4.8 2.4 3.2 2.2 5 2.8 4 1.2 7.4 2.8 9 7 1.4 3.2 1.2 3.6-2.2 3.6-3.4 0-6.8-.2-10.4 0-3.037.055-6.002-.934-8.4-2.8-9.6-6.4-12.4-16.2-13.2-26.8-.4-6.6-4-11.8-8.2-16.8-.8-1-1.6-1.4-2.8-.6a88.62535 88.62535 0 0 1-13.3995 6c-9.6515 3.408-18.1208 9.517-24.4 17.6a21.25885 21.25885 0 0 0-4.4 10.2c-.6 3.6.4 5.2 4 6.2s5.4 3 5.8 6.8c.2 1.6-.4 2.4-2 2.4h-16.2c-.5302-.038-1.0435-.203-1.4962-.482-.4527-.278-.8314-.662-1.1038-1.118-2.5123-3.111-3.8567-7.002-3.8-11-.105-6.91.4981-13.813 1.8-20.6.2669-2.033 1.0258-3.97 2.2108-5.643a12.59475 12.59475 0 0 1 4.5892-3.957c11.8-5.6 18-16.2003 23.6-27.2003 1.2-2.2.2-2.6-1.8-2.4a32.93976 32.93976 0 0 0-15.4 6.4 141.22997 141.22997 0 0 0-16.6 14.2c-5.5007 5.5873-12.7947 9.0573-20.6 9.8003-14.60004.8-21.40004-7.4-20.80004-20.6003.13412-4.5008 1.83129-8.8144 4.8-12.2a8.50035 8.50035 0 0 1 4.04253-2.8724 8.50043 8.50043 0 0 1 4.95751-.1276c3 .8 3.8 2.4 2.6 5.4-.6 1.2-1.4 2.2-2 3.4a14.99839 14.99839 0 0 0-2 4c-2.2 6 .8 10.2 7 10.8 6.6.6 12-2.2 17-6.2a89.88082 89.88082 0 0 0 16-16.6A41.57887 41.57887 0 0 1 65.1581 62.03a41.5798 41.5798 0 0 1 16.0784-5.1163c4.6-.6 8.6-2.6 13-3.8a83.01398 83.01398 0 0 1 25.3995-3.6c3.985.1659 7.954-.5868 11.6-2.2 9.8-4 20-4 30.2-2 8 1.6 16 3.6 23.8 5.6 4.642.865 9.415.7286 14-.4a135.59892 135.59892 0 0 1 26.8-4c5.925-.2883 11.831.8791 17.2 3.4 4 1.8 4 1.8 3 5.6Z"/></g><defs><clipPath id="a"><path fill="#fff" d="M0 44h268v112H0z"/></clipPath></defs></svg>
