<svg xmlns="http://www.w3.org/2000/svg" fill="none"><circle cx="100" cy="111" r="100" fill="#68B738"/><g clip-path="url(#a)"><path fill="#000" d="M139.68 0h-.76A7.00049 7.00049 0 0 0 136 3.18a31.03953 31.03953 0 0 0-2.58 6.82c-.126.7116-.486 1.3611-1.022 1.8462-.535.4851-1.217.7784-1.938.8338-2.204.38-4.293 1.2586-6.105 2.5689-1.813 1.3102-3.303 3.0174-4.355 4.9911-1.447 2.5626-2.684 5.238-3.7 8-2.84 7.36-5.02 14.96-7.7 22.38-1.26 3.38-1.32 3.38-5.12 3.38-4.54 0-4.22-.7-4.28 4.3 0 1.58.48 2.38 2.16 2.3.52 0 1.3-.26 1.5.42.2.68-.48.98-.88 1.38a18.00037 18.00037 0 0 1-8.66 4.88c-3.8 1.02-7.68 1.82-11.38 3.06-9.5 3.18-18.28 7.62-25.12 15.14a56.00043 56.00043 0 0 0-9.48 15.68c-7.34 17.28-10.9 35.48-13.66 53.86-1.3 8.62-2.22 17.28-2.92 26-.36 4.28-.76 8.62-.76 12.98h66.66c.1107-.88-.0498-1.773-.46-2.56-.6411-1.596-1.6829-2.999-3.0247-4.075-1.3418-1.075-2.9383-1.787-4.6353-2.065-1.4-.32-1.56-.74-.7-1.84a20.69197 20.69197 0 0 0 3.18-6.2c3.26-9.62 4.52-19.66 6.1-29.6.8925-7.592 3.228-14.944 6.88-21.66 2.849-4.943 6.649-9.273 11.18-12.74 1.66-1.26 1.72-1.26 2 .88.2 1.42.24 2.88.34 4.32.6 9.449.48 18.93-.36 28.36-.755 7.31-.856 14.672-.3 22 .795 8.507 2.314 16.931 4.54 25.18H148c-.347-2.165-1.344-4.174-2.858-5.759a10.82507 10.82507 0 0 0-5.622-3.121c-2.507-.398-5.07-.262-7.52.4-1.2.28-1.7 0-1.8-1.3-.827-10.588-.154-21.24 2-31.64 2.668-12.006 4.71-24.142 6.12-36.36.525-4.934 2.078-9.703 4.56-14 2.38-4.24 4.46-8.64 6.8-12.9.929-1.549 1.488-3.2914 1.634-5.0918.146-1.8003-.126-3.61-.794-5.2882-.54-1.42-1.06-2.86-1.72-4.22-2-3.9-4-7.76-5.84-11.7-.98-2-.76-2.24 1.42-2.3 3.26 0 3.26 0 3.32-3.28v-1.32c0-1.38-.52-2.14-2-2h-3.04c-1.38 0-1.78-.58-1.44-2 .675-2.3084 2.002-4.3727 3.822-5.9445 1.82-1.5718 4.056-2.5843 6.438-2.9155 4.431-.3842 8.896-.0943 13.24.86.501.1579 1.045.1122 1.512-.1273.468-.2396.823-.6536.988-1.1527.8-2 1.68-4 2.58-6 .204-.3548.294-.7637.258-1.1714-.035-.4078-.195-.7947-.458-1.1086-6.4-8.12-13.34-15.7-22.8-20.56-.457-.1967-.858-.5048-1.165-.8961-.307-.3912-.512-.8533-.595-1.3439a39.16259 39.16259 0 0 0-2.54-8.32A7.00017 7.00017 0 0 0 139.68 0Z"/></g><defs><clipPath id="a"><path fill="#fff" d="M30 0h140v194H30z"/></clipPath></defs></svg>
