<svg xmlns="http://www.w3.org/2000/svg" xmlns:xlink="http://www.w3.org/1999/xlink"><defs><filter id="a" x="0" y="0" width="160" height="160" filterUnits="userSpaceOnUse" color-interpolation-filters="sRGB"><feFlood flood-opacity="0" result="BackgroundImageFix"/><feColorMatrix in="SourceAlpha" values="0 0 0 0 0 0 0 0 0 0 0 0 0 0 0 0 0 0 127 0" result="hardAlpha"/><feOffset dy="4"/><feGaussianBlur stdDeviation="2"/><feComposite in2="hardAlpha" operator="out"/><feColorMatrix values="0 0 0 0 0 0 0 0 0 0 0 0 0 0 0 0 0 0 0.25 0"/><feBlend in2="BackgroundImageFix" result="effect1_dropShadow_29236_4"/><feBlend in="SourceGraphic" in2="effect1_dropShadow_29236_4" result="shape"/></filter><clipPath id="a"><path fill="#fff" d="M0 0h128v24H0z"/></clipPath><clipPath id="a"><path fill="#fff" d="M0 44h268v112H0z"/></clipPath><clipPath id="a"><path fill="#fff" d="M30 0h140v194H30z"/></clipPath><clipPath id="a"><path fill="#fff" d="M0 0h201.99v59.48H0z"/></clipPath><clipPath id="a"><path fill="#fff" d="M0 0h101v18H0z"/></clipPath><clipPath id="a"><path fill="#fff" d="M0 0h33.32v37.61H0z"/></clipPath><clipPath id="a"><path fill="#fff" d="M0 0h174v51.683H0z"/></clipPath><clipPath id="a"><path fill="#fff" d="M0 0h30v32H0z"/></clipPath></defs><symbol id="htmlacademy" viewBox="0 0 60 60"><path fill="#2E368F" d="M30.2 5H30L10.3 7.1v36.2L30 55l19.7-11.7V7.1L30.2 5zm17 36.8L30 52 12.8 41.8V27l17.1 10.2V39l-11.7-7v1.8L30 40.9v1.9l-11.8-7v1.8l11.8 7 11.9-7.1v-7.6l5.3-3.2v15.1zm-.1-17-4.7 2.8-2.2 1.3-10.3-6.1v1.8l8.8 5.3h-.1l-.2.1-1.3.7-7.3-4.3v1.8l5.8 3.4-1.4.9-4.3-2.6v1.8l2.9 1.7-2.9 1.7-17-10.1 17-10.2 17.2 10zm.1-1.8L29.9 12.8 12.8 23V9.4L30 7.6l17.2 1.8V23z"/></symbol><symbol id="sprite"/><symbol id="152"><g fill="none"><g filter="url(#a)"><path fill="#EEE" d="M4 0h152v152H4z"/></g><path d="M40.302 95.837a18.558 18.558 0 0 1-3.254-11.806V66.969a18.845 18.845 0 0 1 3.208-11.92c2.154-2.714 5.834-4.064 11.04-4.049 5.207.015 8.733 1.206 10.577 3.572a15.058 15.058 0 0 1 3.091 10.214v4.003h-9.623v-4.345a22.28 22.28 0 0 0-.302-3.412 3.791 3.791 0 0 0-1.093-2.161 3.65 3.65 0 0 0-1.25-.684 3.7 3.7 0 0 0-1.423-.158c-.69-.1-1.394.01-2.018.315a3.362 3.362 0 0 0-1.468 1.392 12.202 12.202 0 0 0-.79 5.004v21.657c-.107 1.714.204 3.43.906 5.004a3.411 3.411 0 0 0 1.432 1.323 3.506 3.506 0 0 0 1.938.338 3.198 3.198 0 0 0 1.906-.326 3.103 3.103 0 0 0 1.349-1.358c.562-1.6.806-3.291.72-4.981v-4.55h9.623v3.935a16.229 16.229 0 0 1-2.859 10.487c-2.045 2.503-5.578 3.731-10.6 3.731-5.02 0-8.948-1.365-11.11-4.163ZM77.468 52h11.135L98 99h-9.256l-1.668-10.385h-7.8l-1.879 10.318H68L77.468 52Zm8.574 30.707-2.96-18.89-2.936 18.89h5.896ZM104.556 59.083H97V52h25v7.083h-7.463V99h-10.004l.023-39.917Z" fill="#111"/></g></symbol><symbol id="show-more"><g fill="none"><path stroke="#D3D3D3" stroke-width="2" d="M15 0v30m15-15H0"/></g></symbol><symbol id="gift"><g fill="none"><path fill="#fff" d="M64.016 34.713H14.03c-1.754 0-3.182-1.418-3.182-3.16v-9.469c0-1.743 1.428-3.16 3.182-3.16h49.984c1.754 0 3.18 1.417 3.18 3.16v9.469c0 1.742-1.426 3.16-3.18 3.16ZM14.03 21.346a.751.751 0 0 0-.744.738v9.469c0 .407.334.738.744.738h49.984c.41 0 .743-.331.743-.738v-9.469a.75.75 0 0 0-.743-.738H14.03Z"/><path fill="#fff" d="M57.045 67.149H20.999c-3.377 0-6.125-2.73-6.125-6.086V33.502c0-.669.546-1.212 1.219-1.212s1.219.543 1.219 1.212v27.56c0 2.021 1.654 3.665 3.687 3.665h36.046c2.032 0 3.686-1.644 3.686-3.664V33.502c0-.669.546-1.212 1.219-1.212.672 0 1.218.543 1.218 1.212v27.56c0 3.357-2.747 6.087-6.123 6.087Z"/><path fill="#fff" d="M39.023 67.149a1.215 1.215 0 0 1-1.22-1.211V33.502c0-.669.547-1.211 1.22-1.211.672 0 1.218.542 1.218 1.21v32.436c0 .67-.545 1.212-1.218 1.212ZM23.81 21.34c-3.814-2.054-5.238-6.808-3.173-10.6 2.064-3.789 6.848-5.204 10.665-3.154 5.814 3.13 8.954 11.86 9.084 12.23l-2.3.804c-.029-.083-2.961-8.222-7.944-10.904-2.635-1.415-5.937-.438-7.36 2.177-1.426 2.618-.444 5.9 2.19 7.318l-1.162 2.13Z"/><path fill="#fff" d="m54.231 21.341-1.16-2.13a5.376 5.376 0 0 0 2.622-3.207 5.327 5.327 0 0 0-.431-4.109 5.382 5.382 0 0 0-3.226-2.604 5.426 5.426 0 0 0-4.134.426c-4.982 2.682-7.915 10.82-7.944 10.903l-2.3-.803c.131-.37 3.27-9.101 9.084-12.23a7.859 7.859 0 0 1 5.99-.617 7.8 7.8 0 0 1 4.674 3.771 7.72 7.72 0 0 1 .623 5.953 7.788 7.788 0 0 1-3.798 4.647Zm7.719 29.59H16.093a1.215 1.215 0 0 1-1.219-1.21c0-.67.546-1.212 1.219-1.212H61.95c.672 0 1.218.543 1.218 1.211 0 .669-.545 1.211-1.218 1.211Z"/></g></symbol><symbol id="footer-academy-logo"><g fill="none"><path fill="#666" d="M13.643.016 13.5 0 0 1.407v24.606L13.5 34 27 26.013V1.407L13.643.016Zm11.591 25L13.5 31.956 1.766 25.015V14.93l11.685 6.916.02 1.253-8.017-4.743-.011 1.225 8.046 4.808.02 1.287-8.045-4.758-.01 1.226L13.5 26.95l8.124-4.833V16.91l3.62-2.15-.01 10.256Zm0-11.564-3.22 1.88-1.481.875-7.066-4.187-.011 1.225 6.04 3.573-.053.032-.13.075-.86.492-4.986-2.948-.011 1.225 3.936 2.328-.933.61-.021.012-2.971-1.742-.011 1.225 1.947 1.135-1.987 1.186-11.619-6.872 11.638-6.958 11.8 6.834Zm0-1.225L13.44 5.31 1.766 12.22V2.99L13.5 1.764 25.234 2.99v9.237Z"/></g></symbol><symbol id="footer-logo"><g fill="none"><g fill="#111" clip-path="url(#a)"><path d="M1.603 22.051A9.498 9.498 0 0 1 0 16.308V7.795a9.63 9.63 0 0 1 1.502-5.846C2.604.615 4.307 0 6.811 0s4.106.615 5.108 1.744a7.487 7.487 0 0 1 1.502 5.025v2.052H8.513V6.46a5.157 5.157 0 0 0-.3-2.05 1.463 1.463 0 0 0-.579-.63 1.415 1.415 0 0 0-.823-.191c-.701 0-1.202.205-1.403.718a6.774 6.774 0 0 0-.3 2.256v10.974a4.334 4.334 0 0 0 .4 2.154c.2.513.702.718 1.403.718.7 0 1.102-.205 1.302-.718.228-.693.33-1.423.3-2.154v-2.461h4.908v2.051a7.98 7.98 0 0 1-1.502 5.128c-1.002 1.231-2.705 1.847-5.108 1.847-2.404-.103-4.207-.718-5.208-2.052ZM19.33.308h5.71l4.206 23.384h-4.607l-.802-4.923h-3.305l-.801 4.923h-4.708L19.33.308Zm4.107 15.384-1.202-9.128-1.202 9.128h2.404ZM32.75 4.205h-3.405V.308h11.918v3.794H37.86v19.59h-5.108V4.205ZM50.38.308h8.814v2.461h-5.71v7.692h4.608v2.36h-4.607v8.615h5.709v2.359h-8.914V.308h.1Zm11.418 0H64l6.51 15.487V.308h2.604v23.384h-2.003l-6.61-16v16h-2.704V.308Zm14.322 0h8.814v2.461h-5.71v7.692h4.608v2.36h-4.607v8.615h5.709v2.359h-8.814V.308Zm11.418 0h4.607a7.874 7.874 0 0 1 5.108 1.435c1.102.924 1.603 2.565 1.603 4.718 0 2.975-.902 4.821-2.805 5.436l3.205 11.693H96.15l-3.004-10.975h-2.504V23.59h-3.205V.308h.1Zm4.407 10.05a4.301 4.301 0 0 0 2.904-.82c.601-.512.902-1.538.902-3.077a6.775 6.775 0 0 0-.3-2.256 2.583 2.583 0 0 0-1.103-1.23 4.473 4.473 0 0 0-2.203-.411h-1.402v7.692h1.202v.103Zm10.917 11.59A10.575 10.575 0 0 1 101.458 16V8.205c-.024-1.486.144-2.97.501-4.41a5.204 5.204 0 0 1 1.903-2.667 6.422 6.422 0 0 1 3.706-.923c2.103 0 3.606.513 4.507 1.641a7.982 7.982 0 0 1 1.402 5.129v.82h-3.004v-.718a15.503 15.503 0 0 0-.201-2.564 2.056 2.056 0 0 0-.801-1.333 3.04 3.04 0 0 0-1.903-.513 2.955 2.955 0 0 0-2.003.615 2.349 2.349 0 0 0-.801 1.641 19.734 19.734 0 0 0-.201 2.77v8.717a9.527 9.527 0 0 0 .601 3.898c.401.82 1.202 1.128 2.404 1.128.475.06.956-.024 1.384-.243a2.457 2.457 0 0 0 1.02-.988 9.634 9.634 0 0 0 .701-4.102v-1.641h-2.905v-2.36h5.809v11.59h-2.003l-.3-2.666a4.186 4.186 0 0 1-1.554 2.21 4.016 4.016 0 0 1-2.553.764 4.909 4.909 0 0 1-2.406-.47 5.037 5.037 0 0 1-1.9-1.581Zm17.127-6.46L115.08.41h3.005l3.505 11.282L124.995.41H128l-4.908 15.077v8.205h-3.004v-8.205h-.1Z"/></g></g></symbol><symbol id="goals-cat-gain"><g fill="none"><circle cx="134" cy="100" r="100" fill="#68B738"/><g clip-path="url(#a)"><path fill="#000" d="M246.236 55.514a30.402 30.402 0 0 1 9-9.2c2-1.4 3.2-1.4 4.4 1.2 1.6 3.8 3 7.8 1.8 12a4.59 4.59 0 0 0 .8 4.2c1.2 1.6 2.2 3.2 3.2 4.6a12.541 12.541 0 0 1 2.56 5.959 12.536 12.536 0 0 1-.76 6.44 10.865 10.865 0 0 0-.4 6.2c.4 1.98.4 4.02 0 6a7.494 7.494 0 0 1-1.723 4.025 7.5 7.5 0 0 1-3.677 2.376 10.419 10.419 0 0 0-6.4 4c-.188.307-.453.56-.769.735-.315.176-.67.267-1.031.265-2.4.4-8.4-5-8.4-7.4v-1.2c.2-7.2-.2-7.8-6.8-10.8a8.783 8.783 0 0 1-3.6-2.4c-1.2-1.6-2.8-1.4-4.6-.8-1.8.6-2.8 1.8-2.6 3.8.604 4.841.804 9.725.6 14.6.014.556.15 1.103.4 1.6 6.2 9 8.6 19.6 11.6 29.8 2.4 7.8 6.8 12 14.8 12.6 1.281.102 2.551.302 3.8.6a8.318 8.318 0 0 1 4.383 2.156 8.32 8.32 0 0 1 2.417 4.244c1.4 4.2.6 5.2-3.6 5.2h-13a6.481 6.481 0 0 1-4.6-1.6 23.39 23.39 0 0 0-6.8-4 14.53 14.53 0 0 1-6.8-5.2 57.163 57.163 0 0 0-8-9c-5.6-5.8-11.6-11.4-16.8-17.4a22.77 22.77 0 0 1-6.4-15.2c0-1.8-.4-2.6-2.4-1.8a3.86 3.86 0 0 1-2 .6c-5.6 0-8.4 3.4-10.4 8.4-1.8 4.2-4.2 8.2-6.4 12.4a20.802 20.802 0 0 0-2 8.4c0 4.8 1.2 6.4 5.6 8 2.8 1 5.4 2 6.8 4.8 1.6 3.2 1.2 4-2.2 4.2h-13.6a3.762 3.762 0 0 1-3.8-2.2l-3.6-6a12.101 12.101 0 0 1-1.4-10.8c.866-3.473.934-7.097.2-10.6a16.842 16.842 0 0 1 3.4-14c1.2-1.4 1.2-2-.8-2.4a100.166 100.166 0 0 1-23.6-8.2.2.2 0 0 1-.2-.2c-6.4-2.4-7.6-2-9.4 4.6-1.6 5.6-3.2 11.2-4.4 17-1.4 6.4.2 12.4 2.2 18.4.8 2.4 3.2 2.2 5 2.8 4 1.2 7.4 2.8 9 7 1.4 3.2 1.2 3.6-2.2 3.6-3.4 0-6.8-.2-10.4 0a13.288 13.288 0 0 1-8.4-2.8c-9.6-6.4-12.4-16.2-13.2-26.8-.4-6.6-4-11.8-8.2-16.8-.8-1-1.6-1.4-2.8-.6a88.625 88.625 0 0 1-13.4 6 53.42 53.42 0 0 0-24.4 17.6 21.259 21.259 0 0 0-4.4 10.2c-.6 3.6.4 5.2 4 6.2s5.4 3 5.8 6.8c.2 1.6-.4 2.4-2 2.4h-16.2a3.301 3.301 0 0 1-2.6-1.6 17.121 17.121 0 0 1-3.8-11 101.19 101.19 0 0 1 1.8-20.6 12.6 12.6 0 0 1 2.211-5.643 12.595 12.595 0 0 1 4.59-3.957c11.8-5.6 18-16.2 23.6-27.2 1.2-2.2.2-2.6-1.8-2.4a32.94 32.94 0 0 0-15.4 6.4 141.23 141.23 0 0 0-16.6 14.2 33.342 33.342 0 0 1-20.6 9.8c-14.6.8-21.4-7.4-20.8-20.6a19.38 19.38 0 0 1 4.8-12.2 8.5 8.5 0 0 1 4.042-2.873 8.5 8.5 0 0 1 4.957-.127c3 .8 3.8 2.4 2.6 5.4-.6 1.2-1.4 2.2-2 3.4a14.998 14.998 0 0 0-2 4c-2.2 6 .8 10.2 7 10.8 6.6.6 12-2.2 17-6.2a89.88 89.88 0 0 0 16-16.6A41.579 41.579 0 0 1 65.158 62.03a41.58 41.58 0 0 1 16.079-5.116c4.6-.6 8.6-2.6 13-3.8a83.014 83.014 0 0 1 25.399-3.6 25.996 25.996 0 0 0 11.6-2.2c9.8-4 20-4 30.2-2 8 1.6 16 3.6 23.8 5.6 4.642.865 9.415.728 14-.4a135.599 135.599 0 0 1 26.8-4 36.318 36.318 0 0 1 17.2 3.4c4 1.8 4 1.8 3 5.6Z"/></g></g></symbol><symbol id="goals-cat-loss"><g fill="none"><circle cx="100" cy="111" r="100" fill="#68B738"/><g clip-path="url(#a)"><path fill="#000" d="M139.68 0h-.76A7 7 0 0 0 136 3.18a31.04 31.04 0 0 0-2.58 6.82 3.257 3.257 0 0 1-2.96 2.68A14.675 14.675 0 0 0 120 20.24a54.62 54.62 0 0 0-3.7 8c-2.84 7.36-5.02 14.96-7.7 22.38-1.26 3.38-1.32 3.38-5.12 3.38-4.54 0-4.22-.7-4.28 4.3 0 1.58.48 2.38 2.16 2.3.52 0 1.3-.26 1.5.42.2.68-.48.98-.88 1.38a18 18 0 0 1-8.66 4.88c-3.8 1.02-7.68 1.82-11.38 3.06-9.5 3.18-18.28 7.62-25.12 15.14a56 56 0 0 0-9.48 15.68c-7.34 17.28-10.9 35.48-13.66 53.86-1.3 8.62-2.22 17.28-2.92 26-.36 4.28-.76 8.62-.76 12.98h66.66c.11-.88-.05-1.773-.46-2.56a10.002 10.002 0 0 0-7.66-6.14c-1.4-.32-1.56-.74-.7-1.84a20.692 20.692 0 0 0 3.18-6.2c3.26-9.62 4.52-19.66 6.1-29.6A60.008 60.008 0 0 1 104 126a43.215 43.215 0 0 1 11.18-12.74c1.66-1.26 1.72-1.26 2 .88.2 1.42.24 2.88.34 4.32.6 9.449.48 18.93-.36 28.36a123.318 123.318 0 0 0-.3 22A150.344 150.344 0 0 0 121.4 194H148a10.817 10.817 0 0 0-2.858-5.759 10.825 10.825 0 0 0-5.622-3.121 18.007 18.007 0 0 0-7.52.4c-1.2.28-1.7 0-1.8-1.3a112.726 112.726 0 0 1 2-31.64 355.46 355.46 0 0 0 6.12-36.36 35.499 35.499 0 0 1 4.56-14c2.38-4.24 4.46-8.64 6.8-12.9a11.745 11.745 0 0 0 .84-10.38c-.54-1.42-1.06-2.86-1.72-4.22-2-3.9-4-7.76-5.84-11.7-.98-2-.76-2.24 1.42-2.3 3.26 0 3.26 0 3.32-3.28v-1.32c0-1.38-.52-2.14-2-2h-3.04c-1.38 0-1.78-.58-1.44-2a12.483 12.483 0 0 1 10.26-8.86 43.999 43.999 0 0 1 13.24.86 1.999 1.999 0 0 0 2.5-1.28c.8-2 1.68-4 2.58-6a1.997 1.997 0 0 0-.2-2.28c-6.4-8.12-13.34-15.7-22.8-20.56a2.977 2.977 0 0 1-1.76-2.24 39.163 39.163 0 0 0-2.54-8.32A7 7 0 0 0 139.68 0Z"/></g></g></symbol><symbol id="header-logo-desktop"><g fill="none"><g clip-path="url(#a)"><path d="M59.88 24a25.61 25.61 0 1 0-27.37 35.2c-.58-2.09-1.17-4.4-1.69-6.85a32.31 32.31 0 0 0 4.76 2.55s.12 2.16.28 4.57c1.788.03 3.575-.127 5.33-.47a2.137 2.137 0 0 1 0-.76c.29-1.87 1.09-5.24 1.25-7.41a15.223 15.223 0 0 0 2.9-3.71l-.06.44c-.55 4.26-1.7 8.81-2.4 10.07a5.585 5.585 0 0 1-.83 1.15A25.64 25.64 0 0 0 59.88 24Zm-1.47 3.79c-.44.43-1.35.72-1.5-.58-.15-1.3-.19-2.21-.19-2.21s-1.93-3.43-2.65-3.47c-.72-.04-5.83 3.47-7.18 5-1.17 1.29-1.4 1.2-1.4 3.47 0 1.71.22 8.17.1 13.11l-8.15 2.17a64.006 64.006 0 0 1-7.8 1.72l-1-5.83h-.14L25.93 28s-3.81-1.44-5.21-1.83a3.76 3.76 0 0 0-4 .63 5.069 5.069 0 0 0-1.73 3.85c.211.465.372.95.48 1.45.05.48-1.2.43-2 .43s-.92-1.44-.29-3.13c.492-1.3 1.1-2.551 1.82-3.74a11.869 11.869 0 0 1 2.07-2.89s.14-.34 1.25-.24c1.11.1 7.28.43 7.28.43l.05-2.27a142.763 142.763 0 0 1 20.24-1.34v1.83a22.52 22.52 0 0 1 8.14-2 .91.91 0 0 1 .77.39c.34.43 2.41 3 2.65 3.37.672.96 1.283 1.963 1.83 3a6.243 6.243 0 0 1-.87 1.84v.01Z" fill="#FDC305"/><path d="M56.46 21.67c.47.6.88 1.13 1 1.29.672.96 1.283 1.963 1.83 3a6.242 6.242 0 0 1-.86 1.78c-.44.43-1.35.72-1.5-.58-.15-1.3-.21-2.16-.21-2.16s-1.93-3.43-2.65-3.47c-.72-.04-5.83 3.47-7.18 5-1.17 1.29-1.4 1.2-1.4 3.47 0 1.5.17 6.65.13 11.23 1.81.2 4.47.7 5.27 1.88 0 0-.29-7.18 7.81-3.42 0 0 .28-9.79 11.46-7.28a43.72 43.72 0 0 0-13.7-10.74ZM45.93 19.35a90.441 90.441 0 0 0-1.4-16.53s-.15-1.3-.87-.24a14.263 14.263 0 0 0-1.2 4 70.88 70.88 0 0 0-12.82.34c-.82-2.75-2.22-4-2.89-3.67-.67.33-.75 3.28-.75 3.28l-.33 14.16a142.779 142.779 0 0 1 20.26-1.34Z" fill="#F06351"/><path d="M45.35 47.12c.13-1.07.2-2.49.24-4.06l-8.15 2.17a64.005 64.005 0 0 1-7.8 1.77l1.11 5c0 .11 0 .22.07.33a32.32 32.32 0 0 0 4.76 2.55 42.42 42.42 0 0 0 6.88-4.13v.06a15.22 15.22 0 0 0 2.89-3.69Z" fill="#E55645"/><path d="M32 16.22c-.05-.1 1 .68 1.41.92.41.24.61.42.61.59 0 .17-.26.34-.62.34s-.92-.12-1-.26c-.08-.14.6 0 .94 0h.29A8.083 8.083 0 0 1 32 16.22ZM39.5 16.33s-1 1.28-1.09 1.34c-.09.06-.17.34.19.29a8.09 8.09 0 0 0 1.22-.28c.11-.06.07-.2-.12-.18-.19.02-.68.05-1 .11l.85-1.27s.03-.12-.05-.01ZM36.36 22.44a2.3 2.3 0 0 0 1.09-1c.28-.66 0-.91-.44-1a2.45 2.45 0 0 0-1.75.34c-.39.37-.34.73 0 1a5.16 5.16 0 0 0 1.1.66Z" fill="#000"/><path d="M36 23.7a2.05 2.05 0 0 1-.46.6 1.73 1.73 0 0 1-1 .38 2.18 2.18 0 0 1-1.54-.44 1.999 1.999 0 0 1-.53-.45 1.001 1.001 0 0 0-.36-.25s.75 4.11 2.57 4.77c1.82.66 2.16-.76 2.21-1.14a5.63 5.63 0 0 0-.82-3.24c0-.3-.02-.1-.07-.23Z" fill="#F06351"/><path d="M34.3 24.84a3.502 3.502 0 0 1-2.35-1.43.15.15 0 0 1 0-.2.14.14 0 0 1 .2 0 3.219 3.219 0 0 0 2.11 1.31 2.11 2.11 0 0 0 1.64-1l.14-.19.1.22s.38.76 1 .8c.62.04 1.06-.42 1.63-1.29a.144.144 0 0 1 .24.16c-.667.98-1.297 1.45-1.89 1.41A1.55 1.55 0 0 1 36 23.9a2.26 2.26 0 0 1-1.7.94Z" fill="#000"/><path d="M36.26 38.3a3.75 3.75 0 1 0 0-7.5 3.75 3.75 0 0 0 0 7.5Z" fill="#FDC305"/><path d="m41.23 31.5-3.13 1.31 1.15-5.63-7.5 9.76 3.13-1.31-1.15 5.64 7.5-9.77Zm-7.39 3.83L38 29.92l-.81 4 2-.82L35 38.52l.81-4-1.97.81ZM32.44 33.86a1.12 1.12 0 1 0 0-2.24 1.12 1.12 0 0 0 0 2.24ZM38.96 37.92a.79.79 0 1 0 0-1.58.79.79 0 0 0 0 1.58ZM39.92 35.75a.35.35 0 1 0 0-.7.35.35 0 0 0 0 .7Z" fill="#111"/><path d="M45.88 21.16a57.467 57.467 0 0 0-5.09 5.21 31.877 31.877 0 0 1-5.31 4.9c-.22-.53-1.63-1.52-1.63-1.52s-3.14-2.15-5.2-3.84a31.894 31.894 0 0 1-3.14-3l-2-.11a22.63 22.63 0 0 0 12 8.84c.86-.14 3.28-1.87 5.09-3.28a57.664 57.664 0 0 0 6-5.91 6.38 6.38 0 0 0 1.14-2c-1.14.38-1.86.71-1.86.71Z" fill="#F06351"/><path d="m65.22 3.5-8.46 9.44-1.22-1.99L63.69 0l1.53 3.5ZM62.65 17.26l5.54-4.11-.78-3.74-5.4 4.81.64 3.04ZM59.92 49.37l6.13 3.18 3.01-2.34-6.69-2.75-2.45 1.91ZM1.95 5.97l3.07-3.36 9.29 9-1.22 2.28L1.95 5.97ZM7.38 16.28l-4.7-3.13-2.4 3.87 5.15 2.4 1.95-3.14ZM13.91 52.55 9.36 55.9l2.8 3.58 4.02-4.02-2.27-2.91Z" fill="#FDC305"/><path d="M25.93 28s-3.81-1.44-5.21-1.83a3.76 3.76 0 0 0-4 .63 5.07 5.07 0 0 0-1.73 3.85c.211.465.372.95.48 1.45.05.48-1.2.43-2 .43s-.92-1.44-.29-3.13c.492-1.3 1.1-2.551 1.82-3.74-5.45 2.84-15 9.4-15 9.4a45.825 45.825 0 0 1 8.19.24c5.25.53 5 4.67 5 4.67 1.847-.51 3.728-.88 5.63-1.11 2.12-.14 2.27 2.12 2.27 2.12l.53 3.86a18.294 18.294 0 0 1 2.65-2.36 6.06 6.06 0 0 1 4.38-1.3L25.93 28Z" fill="#F06351"/><path d="M85.66 42a8.29 8.29 0 0 1-1.4-5.19v-7.5a8.42 8.42 0 0 1 1.38-5.24c.927-1.193 2.51-1.787 4.75-1.78 2.24.007 3.757.53 4.55 1.57a6.72 6.72 0 0 1 1.33 4.49v1.76h-4.14V28.2a9.985 9.985 0 0 0-.13-1.5 1.68 1.68 0 0 0-.47-.95 1.559 1.559 0 0 0-1.15-.37 1.46 1.46 0 0 0-1.5.75 5.472 5.472 0 0 0-.34 2.2v9.52a4.781 4.781 0 0 0 .39 2.2 1.48 1.48 0 0 0 1.45.73 1.35 1.35 0 0 0 1.4-.74 5.84 5.84 0 0 0 .31-2.19v-2h4.14v1.73A7.25 7.25 0 0 1 95 42.19c-.88 1.1-2.4 1.64-4.56 1.64-2.16 0-3.85-.6-4.78-1.83ZM101.91 22.58h4.74l4 21h-3.94l-.71-4.64h-3.32l-.8 4.61h-4l4.03-20.97Zm3.65 13.72-1.26-8.44-1.25 8.44h2.51ZM113.72 25.74h-3.24v-3.16h10.72v3.16H118v17.81h-4.29l.01-17.81Z" fill="#111"/><path d="M129.61 22.58h8.13v2.18h-5.2v6.93h4.22v2.07h-4.22v7.69h5.25v2.1h-8.18V22.58ZM140.15 22.58h2l6 13.93V22.58h2.44v21h-1.87l-6-14.32v14.29h-2.48l-.09-20.97ZM153.82 22.58h8.12v2.18h-5.2v6.93H161v2.07h-4.22v7.69H162v2.1h-8.18V22.58ZM164.35 22.58h4.22a7 7 0 0 1 4.67 1.31c1 .87 1.49 2.29 1.49 4.26 0 2.667-.863 4.297-2.59 4.89l3 10.51h-2.84l-2.75-9.84h-2.27v9.84h-2.93V22.58Zm4 9a3.87 3.87 0 0 0 2.7-.76 3.574 3.574 0 0 0 .82-2.71 5.851 5.851 0 0 0-.29-2 1.887 1.887 0 0 0-1-1.08 4.759 4.759 0 0 0-2.05-.35h-1.29v6.94l1.11-.04ZM178.67 42a9.247 9.247 0 0 1-1.27-5.35v-7c-.034-1.35.134-2.7.5-4a4.483 4.483 0 0 1 1.74-2.41 5.91 5.91 0 0 1 3.36-.84 5.264 5.264 0 0 1 4.18 1.48 7.001 7.001 0 0 1 1.28 4.63v.78h-2.75v-.65a11.491 11.491 0 0 0-.18-2.32 2 2 0 0 0-.76-1.23 2.999 2.999 0 0 0-1.72-.41 2.52 2.52 0 0 0-1.81.56 2.557 2.557 0 0 0-.77 1.48 14.718 14.718 0 0 0-.17 2.49V37a7.518 7.518 0 0 0 .59 3.46 2.827 2.827 0 0 0 3.496.736c.383-.197.716-.48.974-.826a8.104 8.104 0 0 0 .61-3.65v-1.48h-2.66v-2.07h5.3v10.38h-1.81l-.29-2.41a3.685 3.685 0 0 1-3.73 2.67 4.657 4.657 0 0 1-4.11-1.81ZM194.69 36.15l-4.53-13.57h2.72l3.21 10.12 3.16-10.12H202l-4.5 13.57v7.4h-2.8l-.01-7.4Z" fill="#444"/></g></g></symbol><symbol id="header-logo-mobile-text"><g fill="none"><g clip-path="url(#a)" fill="#111"><path d="M1.264 16.538A6.865 6.865 0 0 1 0 12.231V5.846a6.95 6.95 0 0 1 1.185-4.384C2.055.462 3.398 0 5.374 0s3.24.462 4.03 1.308a5.422 5.422 0 0 1 1.186 3.769v1.538H6.718V4.846a3.693 3.693 0 0 0-.238-1.538 1.12 1.12 0 0 0-.456-.473 1.163 1.163 0 0 0-.65-.143c-.553 0-.948.154-1.106.539a4.846 4.846 0 0 0-.237 1.692v8.23a3.111 3.111 0 0 0 .316 1.616c.158.385.553.539 1.106.539s.87-.154 1.027-.539c.18-.52.26-1.067.238-1.615v-1.846h3.872v1.538a5.775 5.775 0 0 1-1.185 3.846c-.79.923-2.134 1.385-4.031 1.385-1.897-.077-3.32-.539-4.11-1.539ZM15.253.23h4.504l3.32 17.54H19.44l-.632-3.693h-2.608l-.632 3.692h-3.715L15.253.231Zm3.24 11.54-.948-6.847-.949 6.846h1.897ZM25.843 3.154h-2.687V.23h9.404v2.846h-2.687v14.692h-4.03V3.154ZM39.752.23h6.955v1.847h-4.505v5.77h3.635v1.768h-3.635v6.462h4.505v1.77h-7.034V.23h.079ZM48.761.23H50.5l5.137 11.616V.231h2.055v17.538h-1.58l-5.217-12v12h-2.134V.231ZM60.063.23h6.954v1.847h-4.504v5.77h3.635v1.768h-3.635v6.462h4.504v1.77h-6.954V.23ZM69.072.23h3.635a6.451 6.451 0 0 1 4.03 1.078c.87.692 1.265 1.923 1.265 3.538 0 2.23-.71 3.616-2.212 4.077l2.528 8.77h-2.45l-2.37-8.231h-1.976v8.23h-2.529V.231h.079Zm3.477 7.54a3.524 3.524 0 0 0 2.292-.616c.474-.385.711-1.154.711-2.308a4.848 4.848 0 0 0-.237-1.692 1.975 1.975 0 0 0-.869-.923 3.69 3.69 0 0 0-1.739-.308h-1.106v5.77h.948v.076ZM81.163 16.462A7.613 7.613 0 0 1 80.058 12V6.154a12.26 12.26 0 0 1 .395-3.308 3.916 3.916 0 0 1 1.502-2c.882-.508 1.9-.75 2.924-.692 1.66 0 2.845.384 3.556 1.23a5.771 5.771 0 0 1 1.107 3.847v.615H87.17v-.538a11.03 11.03 0 0 0-.158-1.923 1.533 1.533 0 0 0-.633-1A2.493 2.493 0 0 0 84.878 2a2.417 2.417 0 0 0-1.58.462c-.187.152-.338.34-.447.551a1.701 1.701 0 0 0-.186.68 14.01 14.01 0 0 0-.158 2.076v6.539a6.818 6.818 0 0 0 .474 2.923c.316.615.949.846 1.897.846.374.045.754-.018 1.092-.182.337-.165.617-.422.805-.741a6.908 6.908 0 0 0 .553-3.077v-1.23h-2.292v-1.77h4.584v8.692h-1.58l-.238-2a3.143 3.143 0 0 1-1.226 1.658 3.288 3.288 0 0 1-2.014.573 4.046 4.046 0 0 1-1.899-.352 3.932 3.932 0 0 1-1.5-1.186ZM94.678 11.615 90.805.308h2.371l2.766 8.461L98.63.308H101l-3.873 11.307v6.154h-2.37v-6.154h-.08Z"/></g></g></symbol><symbol id="header-logo-mobile"><g fill="none"><g clip-path="url(#a)"><path d="M6.07 20.72v-2.26a143.265 143.265 0 0 1 20.17-1.33c0 .6 0 1.21-.06 1.82a25.518 25.518 0 0 1 6-1.82A16.67 16.67 0 0 0 .19 20.39l5.88.33ZM27.24 24.23c-1.16 1.28-1.39 1.2-1.39 3.45v9.18A16.64 16.64 0 0 0 33.32 23a17.302 17.302 0 0 0-.32-3.1 33.109 33.109 0 0 0-5.76 4.33ZM6.36 25.72s-3.79-1.44-5.19-1.83A8.541 8.541 0 0 0 0 23.61a16.65 16.65 0 0 0 8.68 14L6.36 25.72Z" fill="#FDC305"/><path d="M26.29 17.12A89.799 89.799 0 0 0 24.89.65S24.75-.64 24 .41a14.22 14.22 0 0 0-1.2 3.94 70.34 70.34 0 0 0-12.77.34C9.24 2 7.85.75 7.18 1c-.67.25-.72 3.31-.72 3.31l-.33 14.1a143.211 143.211 0 0 1 20.16-1.29Z" fill="#F06351"/><path d="M12.41 14c0-.09 1 .68 1.41.92.41.24.61.42.61.59 0 .17-.27.34-.63.34s-.91-.12-1-.27h1.23A8.34 8.34 0 0 1 12.41 14ZM19.89 14.11l-1.09 1.33c0 .06-.17.35.18.3a7.351 7.351 0 0 0 1.22-.29c.11 0 .07-.19-.11-.17-.18.02-.69.05-1 .11l.84-1.26s.07-.13-.04-.02ZM16.75 20.2a2.3 2.3 0 0 0 1.09-1c.28-.65 0-.91-.44-1a2.43 2.43 0 0 0-1.74.34c-.39.36-.34.72-.05 1a5.34 5.34 0 0 0 1.14.66Z" fill="#000"/><path d="M16.35 21.45a1.92 1.92 0 0 1-.46.6 1.73 1.73 0 0 1-1 .38 2.15 2.15 0 0 1-1.47-.43 2.3 2.3 0 0 1-.53-.44c-.1-.11-.223-.2-.36-.26 0 0 .75 4.1 2.57 4.75 1.82.65 2.14-.75 2.2-1.13a5.61 5.61 0 0 0-.82-3.23c-.02-.31-.03-.11-.13-.24Z" fill="#F06351"/><path d="M14.71 22.59a3.44 3.44 0 0 1-2.361-1.466.14.14 0 0 1 .031-.154.14.14 0 0 1 .2 0 3.26 3.26 0 0 0 2.11 1.3 2.09 2.09 0 0 0 1.63-1l.14-.19.1.21s.37.76 1 .8c.63.04 1.05-.41 1.61-1.28a.14.14 0 0 1 .2 0 .15.15 0 0 1 .05.2c-.64 1-1.27 1.44-1.88 1.4a1.549 1.549 0 0 1-1.12-.76 2.26 2.26 0 0 1-1.71.94Z" fill="#000"/><path d="M26.24 18.92a58.634 58.634 0 0 0-5.07 5.19A31.633 31.633 0 0 1 15.88 29c-.22-.53-1.62-1.51-1.62-1.51s-3.13-2.14-5.18-3.82a34.139 34.139 0 0 1-3.13-3l-2-.11a22.57 22.57 0 0 0 12 8.8c.86-.14 3.27-1.86 5.07-3.26a58.13 58.13 0 0 0 5.94-5.89 6.15 6.15 0 0 0 1.14-2c-1.1.39-1.86.71-1.86.71Z" fill="#F06351"/></g></g></symbol><symbol id="header-logo-tablet"><g fill="none"><g clip-path="url(#a)"><path d="M51.582 20.854a22.231 22.231 0 0 0-6.936-9.09 21.96 21.96 0 0 0-10.503-4.396A21.887 21.887 0 0 0 22.865 8.83a22.083 22.083 0 0 0-9.058 6.934 22.354 22.354 0 0 0-4.43 10.564 22.432 22.432 0 0 0 1.373 11.386 22.238 22.238 0 0 0 6.813 9.184 21.965 21.965 0 0 0 10.442 4.54c-.5-1.815-1.008-3.822-1.456-5.951a27.756 27.756 0 0 0 4.1 2.215s.104 1.877.241 3.971c1.54.027 3.08-.11 4.592-.408a1.874 1.874 0 0 1 0-.66c.25-1.625.939-4.553 1.077-6.439a13.212 13.212 0 0 0 2.498-3.224l-.052.383c-.474 3.701-1.464 7.655-2.067 8.75a4.845 4.845 0 0 1-.715.999 22.006 22.006 0 0 0 8.563-4.141 22.237 22.237 0 0 0 6.047-7.386 22.45 22.45 0 0 0 .749-18.694Zm-1.266 3.293c-.38.374-1.163.626-1.293-.504-.129-1.13-.163-1.92-.163-1.92s-1.663-2.98-2.283-3.015c-.62-.035-5.022 3.015-6.185 4.344-1.008 1.121-1.206 1.043-1.206 3.015 0 1.486.19 7.1.086 11.392l-7.02 1.886a54.724 54.724 0 0 1-6.72 1.494l-.861-5.066h-.12L22.335 24.33s-3.282-1.252-4.488-1.59a3.213 3.213 0 0 0-3.445.547c-.472.417-.85.931-1.107 1.509a4.437 4.437 0 0 0-.384 1.836c.182.404.321.826.414 1.26.043.417-1.034.374-1.723.374-.69 0-.793-1.251-.25-2.72.424-1.129.948-2.217 1.568-3.25a10.312 10.312 0 0 1 1.783-2.51s.12-.296 1.077-.21c.956.088 6.271.374 6.271.374l.043-1.972a121.95 121.95 0 0 1 17.436-1.165v1.59a19.265 19.265 0 0 1 7.011-1.737.778.778 0 0 1 .664.339c.293.373 2.076 2.607 2.283 2.928.579.835 1.105 1.705 1.576 2.607a5.44 5.44 0 0 1-.75 1.599v.008Z" fill="#FDC305"/><path d="M48.636 18.83c.405.52.758.981.862 1.12.579.835 1.105 1.706 1.576 2.607a5.444 5.444 0 0 1-.74 1.547c-.38.373-1.164.625-1.293-.504-.13-1.13-.18-1.877-.18-1.877s-1.663-2.98-2.283-3.015c-.62-.035-5.023 3.015-6.186 4.344-1.008 1.121-1.206 1.043-1.206 3.015 0 1.304.147 5.779.112 9.758 1.56.174 3.851.609 4.54 1.634 0 0-.25-6.239 6.728-2.972 0 0 .241-8.506 9.872-6.325a37.712 37.712 0 0 0-11.802-9.333ZM39.565 16.814A79.248 79.248 0 0 0 38.36 2.45s-.129-1.13-.749-.208a12.47 12.47 0 0 0-1.034 3.475 60.535 60.535 0 0 0-11.043.296c-.707-2.39-1.913-3.476-2.49-3.189-.577.287-.646 2.85-.646 2.85l-.284 12.304a121.956 121.956 0 0 1 17.452-1.165Z" fill="#F06351"/><path d="M39.065 40.943c.112-.93.172-2.163.207-3.527l-7.02 1.885a54.73 54.73 0 0 1-6.72 1.538l.957 4.345c0 .095 0 .19.06.286a27.764 27.764 0 0 0 4.1 2.216 36.485 36.485 0 0 0 5.927-3.589v.053a13.208 13.208 0 0 0 2.49-3.207Z" fill="#E55645"/><path d="M27.566 14.094c-.043-.087.861.59 1.214.8.353.208.526.364.526.512 0 .148-.224.295-.534.295-.31 0-.793-.104-.862-.226-.069-.121.517 0 .81 0h.25a6.99 6.99 0 0 1-1.404-1.381ZM34.026 14.19s-.861 1.112-.939 1.164c-.077.052-.146.295.164.252a6.911 6.911 0 0 0 1.051-.244c.095-.052.06-.173-.103-.156-.164.017-.586.043-.862.096l.732-1.104s.026-.104-.043-.009ZM31.322 19.498c.399-.177.729-.482.938-.868.242-.574 0-.791-.379-.87a2.095 2.095 0 0 0-1.507.296c-.336.322-.293.634 0 .869.29.23.61.423.948.573Z" fill="#000"/><path d="M31.011 20.593a1.78 1.78 0 0 1-.396.522c-.245.199-.547.314-.861.33a1.866 1.866 0 0 1-1.327-.383 1.725 1.725 0 0 1-.456-.39.862.862 0 0 0-.31-.218s.645 3.572 2.213 4.145c1.568.573 1.86-.66 1.904-.99a4.925 4.925 0 0 0-.706-2.816c0-.26-.018-.087-.06-.2Z" fill="#F06351"/><path d="M29.547 21.584a2.998 2.998 0 0 1-2.024-1.243.131.131 0 0 1 0-.173.122.122 0 0 1 .086-.037.121.121 0 0 1 .086.037 2.785 2.785 0 0 0 1.817 1.138 1.806 1.806 0 0 0 1.413-.87l.12-.164.087.191s.327.66.861.695c.534.035.913-.365 1.404-1.12a.123.123 0 0 1 .172-.035.125.125 0 0 1 .035.173c-.574.852-1.117 1.26-1.628 1.225a1.328 1.328 0 0 1-.965-.634 1.954 1.954 0 0 1-1.464.817Z" fill="#000"/><path d="M31.235 33.28c1.784 0 3.23-1.46 3.23-3.259 0-1.8-1.446-3.258-3.23-3.258s-3.23 1.458-3.23 3.258 1.446 3.258 3.23 3.258Z" fill="#FDC305"/><path d="m35.516 27.37-2.696 1.14.99-4.893-6.46 8.48 2.697-1.138-.991 4.901 6.46-8.49ZM29.151 30.7l3.583-4.701-.698 3.476 1.723-.713-3.61 4.71.699-3.476-1.697.704ZM27.945 29.422a.969.969 0 0 0 .965-.974.97.97 0 0 0-.965-.973.97.97 0 0 0-.965.973c0 .538.432.974.965.974ZM33.561 32.95c.376 0 .68-.308.68-.687a.684.684 0 0 0-.68-.687.684.684 0 0 0-.68.687c0 .379.304.686.68.686ZM34.388 31.064a.303.303 0 0 0 .302-.304.303.303 0 0 0-.302-.305.303.303 0 0 0-.301.305c0 .168.135.304.301.304Z" fill="#111"/><path d="M39.522 18.386a49.73 49.73 0 0 0-4.384 4.527 27.555 27.555 0 0 1-4.574 4.258c-.19-.46-1.405-1.32-1.405-1.32s-2.704-1.869-4.48-3.337a27.578 27.578 0 0 1-2.704-2.607l-1.723-.096a19.507 19.507 0 0 0 10.337 7.681c.741-.121 2.826-1.624 4.385-2.85a49.885 49.885 0 0 0 5.169-5.135c.429-.514.761-1.103.982-1.738-.982.33-1.603.617-1.603.617ZM22.337 24.33s-3.282-1.252-4.488-1.59a3.214 3.214 0 0 0-3.446.547c-.472.417-.85.931-1.107 1.509a4.439 4.439 0 0 0-.383 1.836c.182.404.32.826.413 1.26.043.417-1.033.374-1.723.374-.689 0-.792-1.251-.25-2.72.424-1.129.949-2.217 1.568-3.25C8.227 24.764 0 30.464 0 30.464a39.136 39.136 0 0 1 7.055.209c4.523.46 4.307 4.058 4.307 4.058a33.033 33.033 0 0 1 4.85-.965c1.826-.121 1.956 1.842 1.956 1.842l.456 3.354a15.804 15.804 0 0 1 2.283-2.05 5.189 5.189 0 0 1 3.773-1.13L22.337 24.33Z" fill="#F06351"/><path d="M73.79 36.495a7.25 7.25 0 0 1-1.206-4.51v-6.517a7.364 7.364 0 0 1 1.189-4.553c.798-1.037 2.162-1.553 4.091-1.547 1.93.006 3.236.46 3.92 1.364a5.875 5.875 0 0 1 1.145 3.902v1.53h-3.566v-1.66a8.768 8.768 0 0 0-.112-1.304 1.464 1.464 0 0 0-.405-.825 1.341 1.341 0 0 0-.99-.322 1.248 1.248 0 0 0-1.292.652 4.79 4.79 0 0 0-.293 1.911v8.273c-.04.654.076 1.31.336 1.911a1.265 1.265 0 0 0 1.25.634c.241.035.488-.008.705-.124.216-.115.391-.297.5-.519a5.114 5.114 0 0 0 .267-1.902V31.15h3.566v1.503a6.342 6.342 0 0 1-1.06 4.006c-.758.955-2.067 1.425-3.928 1.425-1.86 0-3.316-.522-4.117-1.59ZM87.788 19.62h4.083l3.446 18.247h-3.394l-.612-4.031h-2.86l-.689 4.005h-3.445l3.471-18.22Zm3.144 11.922-1.085-7.334-1.077 7.334h2.162ZM97.962 22.366H95.17V19.62h9.234v2.746h-2.757V37.84h-3.695l.008-15.475Z" fill="#111"/><path d="M111.65 19.62h7.003v1.894h-4.479v6.022h3.635v1.799h-3.635v6.682h4.522v1.824h-7.046v-18.22ZM120.729 19.62h1.723l5.168 12.104V19.62h2.102v18.247h-1.611l-5.168-12.442V37.84h-2.136l-.078-18.22ZM132.505 19.62h6.994v1.894h-4.479v6.022h3.67v1.799h-3.635v6.682h4.496v1.824h-7.046v-18.22ZM141.576 19.62h3.635a5.994 5.994 0 0 1 4.023 1.138c.861.756 1.283 1.99 1.283 3.702 0 2.317-.744 3.733-2.231 4.249l2.584 9.132h-2.446l-2.369-8.55H144.1v8.55h-2.524v-18.22Zm3.445 7.82c.83.081 1.66-.154 2.326-.66a3.115 3.115 0 0 0 .706-2.355 5.12 5.12 0 0 0-.249-1.738 1.645 1.645 0 0 0-.862-.938 4.068 4.068 0 0 0-1.766-.304h-1.111v6.03l.956-.035ZM153.911 36.495a8.104 8.104 0 0 1-1.094-4.65v-6.082a11.857 11.857 0 0 1 .431-3.475 3.894 3.894 0 0 1 1.499-2.094 5.056 5.056 0 0 1 2.894-.73c.657-.063 1.32.02 1.941.241a4.526 4.526 0 0 1 1.66 1.045 6.12 6.12 0 0 1 1.102 4.023v.678h-2.368v-.565a10.088 10.088 0 0 0-.155-2.016 1.742 1.742 0 0 0-.655-1.069 2.567 2.567 0 0 0-1.482-.356 2.158 2.158 0 0 0-1.559.486 2.229 2.229 0 0 0-.663 1.287c-.109.715-.158 1.439-.147 2.163v6.769a6.575 6.575 0 0 0 .509 3.006 2.434 2.434 0 0 0 1.944.912 2.426 2.426 0 0 0 1.906-.99 7.111 7.111 0 0 0 .526-3.171V30.62h-2.292v-1.799h4.566v9.02h-1.56l-.249-2.095a3.211 3.211 0 0 1-1.206 1.725 3.158 3.158 0 0 1-2.007.595 3.985 3.985 0 0 1-1.971-.328 4.02 4.02 0 0 1-1.57-1.244ZM167.711 31.411l-3.902-11.79h2.343l2.765 8.793 2.722-8.794h2.369l-3.876 11.791v6.43h-2.412l-.009-6.43Z" fill="#444"/></g></g></symbol><symbol id="nav-logo-mobile"><g fill="none"><path stroke="#000" stroke-width="1.5" d="M0 1.25h24M0 9.25h24M0 17.25h24"/></g></symbol><symbol id="1"><g fill="none"><path d="M40.372 227V39.4c-.187.187-2.333.747-6.44 1.68-3.92.933-8.4 1.867-13.44 2.8-5.04.933-9.52 1.773-13.44 2.52-3.92.747-5.973 1.12-6.16 1.12V24.84c3.174-.747 6.814-1.773 10.92-3.08A119.738 119.738 0 0 0 24.692 17c4.48-1.867 8.68-4.2 12.6-7 4.107-2.8 7.56-6.067 10.36-9.8h22.68V227h-29.96Z" fill="#F2F2F2"/></g></symbol><symbol id="2"><g fill="none"><path d="M.625 229v-21.28l57.68-89.88c4.293-6.72 8.213-12.973 11.76-18.76 3.733-5.787 6.72-11.853 8.96-18.2 2.426-6.533 3.64-14 3.64-22.4 0-10.453-1.68-18.667-5.04-24.64-3.36-5.973-9.24-8.96-17.64-8.96-7.094 0-12.6 1.96-16.52 5.88s-6.627 9.053-8.12 15.4c-1.494 6.347-2.24 13.16-2.24 20.44v7.56H3.145v-7.84c0-13.627 1.773-25.293 5.32-35 3.733-9.893 9.613-17.547 17.64-22.96C34.318 2.947 45.145.24 58.584.24c18.293 0 31.92 5.227 40.88 15.68 8.96 10.267 13.44 24.547 13.44 42.84 0 9.707-1.214 18.2-3.64 25.48-2.24 7.28-5.227 14.093-8.96 20.44-3.734 6.347-7.84 12.88-12.32 19.6l-52.08 79.52h71.68V229H.625Z" fill="#F2F2F2"/></g></symbol><symbol id="3"><g fill="none"><path d="M55.921 231.52c-12.32 0-22.586-2.333-30.8-7-8.213-4.667-14.373-11.387-18.48-20.16-4.106-8.773-6.16-19.133-6.16-31.08v-7.56h29.68v5.04c.187 6.72.934 12.787 2.24 18.2 1.494 5.413 4.014 9.707 7.56 12.88 3.734 3.173 9.054 4.76 15.96 4.76 7.28 0 12.787-1.68 16.52-5.04 3.734-3.547 6.254-8.493 7.56-14.84 1.307-6.347 1.96-13.627 1.96-21.84 0-11.947-2.24-21.653-6.72-29.12-4.293-7.653-11.946-11.853-22.96-12.6-.56-.187-1.306-.28-2.24-.28h-1.96V92.92h3.92c10.64-.373 18.294-3.173 22.96-8.4 4.667-5.227 7-13.907 7-26.04 0-10.267-1.773-18.48-5.32-24.64-3.36-6.16-10.173-9.24-20.44-9.24-10.266 0-17.08 3.453-20.44 10.36-3.36 6.72-5.226 15.4-5.6 26.04v4.76H.481V58.2c0-12.133 2.054-22.493 6.16-31.08 4.107-8.587 10.267-15.213 18.48-19.88 8.4-4.667 18.76-7 31.08-7 12.507 0 22.867 2.333 31.08 7 8.214 4.667 14.374 11.387 18.48 20.16 4.107 8.587 6.16 18.947 6.16 31.08 0 13.627-2.986 24.547-8.96 32.76-5.786 8.213-13.626 13.813-23.52 16.8 6.907 2.053 12.694 5.6 17.36 10.64 4.854 5.04 8.587 11.48 11.2 19.32 2.614 7.653 3.92 16.613 3.92 26.88 0 13.44-1.866 25.2-5.6 35.28-3.733 9.893-9.706 17.64-17.92 23.24-8.213 5.413-19.04 8.12-32.48 8.12Z" fill="#F2F2F2"/></g></symbol><symbol id="4"><g fill="none"><path d="M66.324 227v-60.76H.524v-31.36L59.604.2h35.28v139.44h25.48v26.6h-25.48V227h-28.56Zm-36.96-87.36h36.96V36.6l-36.96 103.04Z" fill="#F2F2F2"/></g></symbol><symbol id="work-leaf"><g fill="none"><g clip-path="url(#a)"><path fill="#fff" d="M27.775 2.767c-.1-.45-.479-.767-.91-.767h-.006c-4.938.033-16.946.916-21.794 8.38-2.518 3.878-2.734 8.913-.644 14.965.016.047.05.079.07.122-.747 1.973-1.036 3.286-1.044 3.323-.108.54.215 1.072.721 1.188a.88.88 0 0 0 .197.022c.432 0 .821-.321.916-.79.02-.102 2.408-10.373 10.853-16.378.432-.306.548-.927.26-1.387-.288-.46-.869-.585-1.3-.277-4.789 3.405-7.738 8.008-9.473 11.656-1.24-4.578-.916-8.377.987-11.305C10.35 5.755 19.23 4.365 24.59 4.071 23.437 5.872 22.177 9.174 22.177 15c0 3.12-.83 5.522-2.465 7.14-2.621 2.591-6.88 2.834-9.994 2.584-.517-.045-.966.371-1.006.922-.04.55.348 1.03.864 1.072.623.051 1.289.082 1.98.082 3.171 0 6.87-.663 9.43-3.194 2.034-2.011 3.066-4.906 3.066-8.605 0-9.099 3.215-11.096 3.231-11.105.39-.209.595-.677.492-1.129Z"/></g></g></symbol><symbol id="work-meal"><g fill="none"><path fill="#fff" fill-rule="evenodd" d="M18.617.076a1 1 0 0 1 1.09.217c.909.908 2.097 2.878 3.059 5.918C23.737 9.28 24.5 13.508 24.5 19a1 1 0 0 1-1 1H20v9a1 1 0 1 1-2 0V1a1 1 0 0 1 .617-.924ZM20 18h2.491c-.086-4.816-.786-8.512-1.632-11.186-.278-.88-.57-1.643-.859-2.295V18ZM6 0a1 1 0 0 1 1 1v28a1 1 0 1 1-2 0V1a1 1 0 0 1 1-1Z" clip-rule="evenodd"/><path fill="#fff" fill-rule="evenodd" d="M1.5 0a1 1 0 0 1 1 1v5.5c0 .557.192 1.315.7 1.917C3.68 8.983 4.515 9.5 6 9.5a1 1 0 1 1 0 2c-2.015 0-3.43-.733-4.326-1.792A5.068 5.068 0 0 1 .5 6.5V1a1 1 0 0 1 1-1Z" clip-rule="evenodd"/><path fill="#fff" fill-rule="evenodd" d="M10.5 0a1 1 0 0 0-1 1v5.5a3.07 3.07 0 0 1-.7 1.917C8.32 8.983 7.484 9.5 6 9.5a1 1 0 0 0 0 2c2.014 0 3.43-.733 4.326-1.792A5.068 5.068 0 0 0 11.5 6.5V1a1 1 0 0 0-1-1Z" clip-rule="evenodd"/></g></symbol><symbol id="work-powder"><g fill="none"><path fill="#fff" d="M10.875 0c-1.631 0-2.9 1.36-2.9 3.081 0 1.722 1.269 3.081 2.9 3.081s2.9-1.359 2.9-3.08c0-1.723-1.269-3.082-2.9-3.082Zm0 1.178c.997 0 1.722.843 1.722 1.903 0 .997-.789 1.903-1.722 1.903-.997 0-1.722-.842-1.722-1.903 0-.997.78-1.903 1.722-1.903ZM0 24.741c0 1.178.408 2.175 1.36 2.99.996.852 2.174.78 2.174.78h19.032c.779 0 1.812-.381 2.628-1.45.843-.997.788-2.357.788-2.357V7.486c0-.435-.109-.598-.743-.598s-.689.271-.689.589v17.218c-.018.3-.072 1.088-.743 1.722-.734.625-1.45.544-1.45.544s-18.125 0-19.031-.027c-.344-.064-.906-.19-1.45-.906-.508-.725-.408-1.632-.408-1.632V7.178c0-.463-.235-.635-.725-.635S0 6.715 0 7.123v17.618ZM16.313 8.428c-1.088.236-2.175.38-4.26 2.356-2.084 1.994-3.625 1.903-5.166 1.813-1.54-.09-3.171-1.54-3.443-1.903-.336-.354-.906-.118-1.088.118-.154.235-.154.643.109.996 1.269 1.179 2.447 2.085 4.713 2.266 2.265.218 4.44-.806 5.89-2.266 1.45-1.45 2.175-1.721 3.263-1.903 2.628-.417 4.168.617 5.075 1.27.997 1.087 1.268.778 1.54.47.544-.716-.226-1.268-1.087-1.903-1.813-1.178-3.535-1.631-5.528-1.269l-.018-.045Zm-9.063 7.16c-1.178 0-2.084.996-2.084 2.265 0 1.269.906 2.266 2.084 2.266s2.084-.997 2.084-2.266c0-1.269-.906-2.266-2.084-2.266Zm11.781.779c-1.54 0-2.81 1.36-2.81 2.99 0 1.632 1.27 2.991 2.81 2.991s2.81-1.36 2.81-2.99c0-1.632-1.27-2.991-2.81-2.991Zm0 1.45c.798 0 1.45.698 1.45 1.54 0 .861-.652 1.541-1.45 1.541-.797 0-1.45-.698-1.45-1.54 0-.861.653-1.541 1.45-1.541Z"/></g></symbol><symbol id="work-time"><g fill="none"><path fill="#fff" d="M5.538 0c-1.063 0-1.063 1.583 0 1.583h6.643v1.604C5.38 3.62 0 9.414 0 16.485c0 4.01 1.743 7.63 4.496 10.069.479.422.542 1.171.107 1.636L3.072 29.74c-.744.686.361 1.752 1.031 1.003l1.998-2.037c.351-.338.872-.422 1.308-.211a12.702 12.702 0 0 0 11.065.063 1.14 1.14 0 0 1 1.297.211l1.935 1.974c.68.633 1.658-.317 1.041-1.003l-1.445-1.477c-.447-.454-.383-1.203.106-1.636a13.462 13.462 0 0 0 3.403-4.583A13.376 13.376 0 0 0 26 16.475c0-7.071-5.41-12.876-12.224-13.288V1.583h6.643c1.063 0 1.063-1.583 0-1.583H5.538ZM1.435 16.475c0-6.533 5.177-11.82 11.565-11.82 6.378 0 11.554 5.287 11.554 11.82 0 6.543-5.176 11.841-11.554 11.841S1.435 23.018 1.435 16.475ZM12.192 8.38c0-1.098 1.658-1.098 1.658 0v8.633c0 .224-.09.439-.249.597a.853.853 0 0 1-.601.247.811.811 0 0 1-.568-.23.8.8 0 0 1-.24-.561V8.38Zm-4.975 2.617c.308 0 .602-.12.82-.337a1.146 1.146 0 0 0 0-1.627 1.163 1.163 0 0 0-.82-.337c-.286.028-.553.16-.746.372a1.146 1.146 0 0 0 0 1.547c.193.212.46.344.746.372v.01Zm11.555 0c.307 0 .602-.12.82-.337a1.146 1.146 0 0 0 0-1.627 1.163 1.163 0 0 0-.82-.337c-.287.028-.553.16-.747.372a1.145 1.145 0 0 0 0 1.547c.194.212.46.344.747.372v.01ZM8.376 23.588c0 1.53-2.317 1.53-2.317 0s2.317-1.53 2.317 0ZM13 27.028a1.169 1.169 0 0 0 .89-.293 1.153 1.153 0 0 0 .38-.851c0-.16-.034-.32-.1-.466a1.152 1.152 0 0 0-.28-.386 1.162 1.162 0 0 0-.414-.24 1.165 1.165 0 0 0-.476-.053c-.287.027-.553.16-.747.371a1.146 1.146 0 0 0 0 1.547c.194.212.46.344.747.372ZM4.91 16.645a1.143 1.143 0 0 1-.053.473 1.149 1.149 0 0 1-.242.41 1.158 1.158 0 0 1-.389.279 1.166 1.166 0 0 1-.468.098c-.162 0-.322-.033-.47-.098a1.158 1.158 0 0 1-.388-.279 1.149 1.149 0 0 1-.242-.41 1.143 1.143 0 0 1-.054-.473c.028-.285.161-.55.374-.742a1.163 1.163 0 0 1 1.559 0c.213.193.346.457.374.742Zm17.327 1.15c.16.015.323-.003.476-.053a1.16 1.16 0 0 0 .414-.24 1.152 1.152 0 0 0 .38-.852c0-.16-.034-.319-.1-.466a1.15 1.15 0 0 0-.28-.385 1.159 1.159 0 0 0-.414-.24 1.166 1.166 0 0 0-.476-.054c-.287.027-.553.16-.747.371a1.146 1.146 0 0 0 0 1.548c.194.211.46.344.747.371Zm-2.307 5.805c0 1.52-2.317 1.52-2.317-.01s2.317-1.531 2.317 0v.01Z"/></g></symbol><symbol id="socials-telegram"><g fill="none"><path fill="#666" fill-rule="evenodd" d="M23.46 3.153a.657.657 0 0 1 .227.611l-2.626 15.757a.657.657 0 0 1-.387.495.656.656 0 0 1-.625-.056l-7.878-5.253a.657.657 0 0 1-.285-.445.657.657 0 0 1 .136-.511l2.611-3.263-4.36 2.906a.657.657 0 0 1-.658.041L4.363 10.81a.657.657 0 0 1 .073-1.205l18.383-6.566a.657.657 0 0 1 .642.115Zm-17.134 7.17 3.536 1.768 7.561-5.041a.656.656 0 0 1 .877.956l-4.805 6.006 6.438 4.292L22.208 4.65 6.326 10.323Z" clip-rule="evenodd"/></g></symbol><symbol id="socials-vk"><g fill="none"><path fill="#666" d="M1 5.339c0-.855.515-1.316 1.545-1.383l3.97.025a.52.52 0 0 1 .533.377c.409 1.257.866 2.343 1.372 3.257.506.913 1.168 1.965 1.985 3.156.071.15.187.226.346.226.125 0 .223-.059.294-.176l.08-.277.026-4.35c0-.302-.075-.503-.226-.604-.151-.1-.431-.176-.84-.226-.32-.05-.48-.235-.48-.553 0-.067.01-.118.027-.151.373-1.09 1.44-1.635 3.198-1.635L14.322 3c.675 0 1.234.16 1.678.478.444.318.666.821.666 1.509v5.708c.125.084.24.126.347.126.266 0 .497-.15.692-.453 1.954-2.582 3.011-4.308 3.17-5.18 0-.017.019-.059.054-.126.124-.251.329-.47.613-.654.284-.184.533-.31.746-.377a.554.554 0 0 1 .24-.05h4.13l.266.025c.355 0 .63.16.826.478.07.1.12.21.146.327.027.117.045.234.054.352.008.117.013.184.013.2v.177c-.124.687-.44 1.42-.946 2.2-.506.78-1.15 1.622-1.932 2.528-.781.905-1.27 1.5-1.465 1.785-.16.201-.24.386-.24.554 0 .134.071.285.214.452l3.89 4.627c.213.269.32.562.32.88 0 .386-.16.705-.48.956-.32.252-.702.394-1.146.428l-.453.025h-4.05a.855.855 0 0 0-.106.012.862.862 0 0 1-.107.013c-.39 0-.755-.16-1.092-.478-.125-.134-.96-1.123-2.505-2.967a1.387 1.387 0 0 0-.373-.327c-.07.268-.164.654-.28 1.157-.115.503-.2.863-.253 1.081l-.08.427c-.177.587-.55.94-1.119 1.057l-.373.025h-2.61c-1.475 0-2.945-.637-4.41-1.911-1.466-1.275-2.784-2.922-3.957-4.942-1.172-2.02-2.264-4.372-3.277-7.054A1.916 1.916 0 0 1 1 5.338Zm16.013 6.513c-.373 0-.71-.096-1.013-.29-.302-.192-.453-.456-.453-.791V4.987c0-.336-.089-.575-.266-.717-.178-.143-.489-.214-.933-.214l-1.518.05c-.764 0-1.341.126-1.732.378.781.352 1.172.922 1.172 1.71v4.426a1.5 1.5 0 0 1-.533 1.044 1.59 1.59 0 0 1-1.066.414c-.532 0-.94-.243-1.225-.729C8.06 9.371 7.03 7.493 6.356 5.716l-.24-.654-3.544-.025c-.231 0-.36.013-.386.038-.027.025-.04.096-.04.213 0 .151.017.31.053.478l.56 1.409c1.491 3.638 3.112 6.505 4.862 8.6 1.75 2.096 3.468 3.144 5.155 3.144h2.665c.106 0 .186-.03.24-.088.053-.06.097-.172.133-.34l.053-.251.506-2.213c.142-.302.267-.503.373-.604a.975.975 0 0 1 .693-.277c.426 0 .861.243 1.305.73l2.265 2.716c.142.218.293.327.453.327h4.396c.533 0 .8-.126.8-.378a.466.466 0 0 0-.08-.251l-3.864-4.552c-.302-.352-.453-.73-.453-1.132s.142-.788.427-1.156c.23-.336.679-.893 1.345-1.673a37.63 37.63 0 0 0 1.745-2.188c.498-.679.826-1.295.986-1.848l.08-.327c-.018-.033-.027-.088-.027-.163s-.009-.139-.026-.189h-4.183c-.267.1-.48.252-.64.453l-.16.478c-.444 1.156-1.607 2.942-3.49 5.356a1.892 1.892 0 0 1-1.305.503Z"/></g></symbol><symbol id="socials-youtube"><g fill="none"><path fill="#666" d="m17.85 10.793-5.236-3.491a.655.655 0 0 0-.33-.107.655.655 0 0 0-.591.317.655.655 0 0 0-.093.335v6.982c0 .12.033.236.094.338a.654.654 0 0 0 .255.24c.103.056.22.083.337.077a.643.643 0 0 0 .329-.11l5.236-3.49a.655.655 0 0 0 .215-.236.654.654 0 0 0 .078-.31.654.654 0 0 0-.078-.31.655.655 0 0 0-.215-.235Zm-4.94 2.814V9.07l3.403 2.27-3.404 2.268Zm12.48-8.563a2.4 2.4 0 0 0-.53-.993 2.4 2.4 0 0 0-.922-.644C20.218 1.978 14.251 2 14 2c-.25 0-6.218-.022-9.938 1.407A2.4 2.4 0 0 0 2.61 5.044C2.327 6.113 2 8.076 2 11.338c0 3.262.327 5.226.61 6.295a2.4 2.4 0 0 0 1.452 1.636c3.72 1.43 9.687 1.407 9.938 1.407h.076c.753 0 6.317-.043 9.862-1.407a2.4 2.4 0 0 0 1.451-1.636c.284-1.07.611-3.033.611-6.295s-.327-5.225-.61-6.294Zm-1.266 12.261a1.09 1.09 0 0 1-.239.45 1.09 1.09 0 0 1-.416.292c-3.49 1.342-9.404 1.32-9.469 1.32-.065 0-5.978.022-9.47-1.32a1.09 1.09 0 0 1-.415-.292 1.09 1.09 0 0 1-.239-.45c-.261-1.003-.567-2.847-.567-5.967 0-3.12.306-4.963.567-5.967a1.09 1.09 0 0 1 .655-.742C8.02 3.287 13.935 3.31 14 3.31c.066 0 5.978-.022 9.47 1.32.159.063.302.164.415.293a1.091 1.091 0 0 1 .239.449c.262 1.004.567 2.847.567 5.967s-.305 4.964-.567 5.967Z"/></g></symbol></svg>