<svg width="160" height="160" viewBox="0 0 160 160" fill="none" xmlns="http://www.w3.org/2000/svg">
<g filter="url(#filter0_d_29236_4)">
<rect x="4" width="152" height="152" fill="#EEEEEE"/>
</g>
<path d="M40.3022 95.8371C37.9077 92.3646 36.7628 88.2106 37.0481 84.0307V66.9694C36.746 62.7587 37.8736 58.5682 40.2557 55.0493C42.4097 52.3347 46.0899 50.985 51.2966 51.0001C56.5032 51.0153 60.0285 52.2058 61.8725 54.5716C64.121 57.5034 65.2181 61.1283 64.964 64.7856V68.7893H55.341V64.4444C55.328 63.3011 55.227 62.1605 55.0388 61.0321C54.9225 60.2153 54.5393 59.4572 53.9464 58.871C53.5804 58.5639 53.1555 58.3312 52.6965 58.1867C52.2375 58.0422 51.7537 57.9887 51.2733 58.0294C50.5835 57.9286 49.8786 58.0383 49.2548 58.3436C48.6309 58.6489 48.1183 59.1349 47.7867 59.7355C47.1756 61.333 46.9066 63.0365 46.9965 64.7401V86.3965C46.8904 88.1114 47.2011 89.8264 47.903 91.4011C48.2383 91.9692 48.736 92.429 49.3347 92.7241C49.9335 93.0191 50.6073 93.1365 51.2733 93.0618C51.9278 93.1523 52.5947 93.0384 53.1791 92.7361C53.7634 92.4338 54.2353 91.9586 54.5275 91.3784C55.0897 89.7778 55.3343 88.0869 55.248 86.3965V81.8468H64.871V85.7823C65.1543 89.4935 64.1467 93.1894 62.012 96.2693C59.9665 98.7716 56.4335 100 51.4128 100C46.3921 100 42.4639 98.6351 40.3022 95.8371Z" fill="#111111"/>
<path d="M77.4675 52H88.603L98 99H88.7439L87.076 88.6152H79.2764L77.397 98.9329H68L77.4675 52ZM86.0423 82.7067L83.0822 63.8171L80.1457 82.7067H86.0423Z" fill="#111111"/>
<path d="M104.556 59.0825H97V52H122V59.0825H114.537V99H104.533L104.556 59.0825Z" fill="#111111"/>
<defs>
<filter id="filter0_d_29236_4" x="0" y="0" width="160" height="160" filterUnits="userSpaceOnUse" color-interpolation-filters="sRGB">
<feFlood flood-opacity="0" result="BackgroundImageFix"/>
<feColorMatrix in="SourceAlpha" type="matrix" values="0 0 0 0 0 0 0 0 0 0 0 0 0 0 0 0 0 0 127 0" result="hardAlpha"/>
<feOffset dy="4"/>
<feGaussianBlur stdDeviation="2"/>
<feComposite in2="hardAlpha" operator="out"/>
<feColorMatrix type="matrix" values="0 0 0 0 0 0 0 0 0 0 0 0 0 0 0 0 0 0 0.25 0"/>
<feBlend mode="normal" in2="BackgroundImageFix" result="effect1_dropShadow_29236_4"/>
<feBlend mode="normal" in="SourceGraphic" in2="effect1_dropShadow_29236_4" result="shape"/>
</filter>
</defs>
</svg>
