<svg xmlns="http://www.w3.org/2000/svg" width="27" height="34"><path d="M13.6426.01575 13.5 0 0 1.40733V26.0129L13.5 34 27 26.0129V1.40733L13.6426.01575ZM25.2344 25.0151 13.5 31.9573 1.76561 25.0151V14.9293l11.68509 6.9158.0194 1.2533-8.01659-4.7436-.01056 1.2253 8.04645 4.8084.0194 1.2865-8.04472-4.7576-.01057 1.2253L13.5 26.9511l8.1239-4.8329V16.909l3.6193-2.1495-.0088 10.2556Zm0-11.5632-3.2197 1.88-1.4822.8752-7.0659-4.187-.0106 1.2253 6.0397 3.5726-.0528.0315-.1303.0752-.859.4919-4.987-2.9477-.0106 1.2253 3.9361 2.328-.933.6092-.0211.0122-2.9714-1.7416-.0106 1.2253 1.9469 1.1342-1.9874 1.1868-11.6182-6.8721 11.6376-6.95789 11.7995 6.83359Zm0-1.2253L13.4401 5.31075 1.76561 12.2196V2.9897L13.5 1.76442 25.2344 2.9897v9.2369Z"/></svg>
