<svg xmlns="http://www.w3.org/2000/svg" viewBox="0 0 143 27"><path d="M1.78783 24.4384C.52251 22.6068-.10561 20.4108.00003 18.188V8.92406C-.1532 6.67734.43559 4.44243 1.67609 2.56207 2.9052 1.11109 4.80474.44141 7.59818.44141c2.79342 0 4.58122.66968 5.69862 1.89743 1.2131 1.55504 1.8098 3.50218 1.676 5.46908v2.23228H9.49771V7.47308A5.48592 5.48592 0 0 0 9.1625 5.2408a1.608 1.608 0 0 0-.64531-.68567 1.61046 1.61046 0 0 0-.91901-.20724c-.78217 0-1.34085.22323-1.56433.7813a7.20277 7.20277 0 0 0-.33521 2.4555V19.5274a4.61654 4.61654 0 0 0 .44695 2.3439c.22347.558.78216.7813 1.56432.7813.78217 0 1.22912-.2233 1.45259-.7813a6.51147 6.51147 0 0 0 .33521-2.3439v-2.6788h5.47509v2.2323c.1137 1.999-.4796 3.9743-1.676 5.5807-1.1174 1.3394-3.0169 2.0091-5.69862 2.0091-2.6817-.1116-4.69298-.7813-5.81035-2.2323ZM21.5653.77637h6.3691l4.6929 25.44793h-5.1399l-.8939-5.3574h-3.6873l-.8939 5.3574h-5.2517L21.5653.77637Zm4.5813 16.74203-1.3409-9.93359-1.3408 9.93359h2.6817ZM36.5382 5.01769h-3.7991V.77637h13.2967v4.12971h-3.799V26.2243h-5.6986V5.01769ZM56.2039.77637h9.8329V3.4551h-6.369v8.371h5.1399v2.5672h-5.1399v9.3755h6.369v2.5671h-9.9446V.77637h.1117ZM68.942.77637h2.4582l7.263 16.85373V.77637h2.9052V26.2243h-2.2348L71.9589 8.81257V26.2243H68.942V.77637ZM84.9205.77637h9.8329V3.4551h-6.3691v8.371h5.14v2.5672h-5.14v9.3755h6.3691v2.5671h-9.8329V.77637ZM97.6585.77612h5.1395c2.022-.13952 4.032.41147 5.699 1.56259 1.229 1.00453 1.788 2.79035 1.788 5.13424 0 3.23685-1.006 5.24585-3.129 5.91555l3.576 12.724h-3.464l-3.352-11.9427h-2.794v11.9427h-3.5752V.77612h.1117Zm4.9165 10.93818c1.152.0948 2.3-.2216 3.24-.8929.671-.5581 1.006-1.67424 1.006-3.34845.031-.83169-.082-1.66246-.335-2.4555a2.84196 2.84196 0 0 0-1.229-1.33937 5.1036 5.1036 0 0 0-2.459-.44646h-1.564v8.37108h1.341v.1116ZM114.754 24.3269a11.28131 11.28131 0 0 1-1.564-6.4736V9.37066c-.028-1.61746.16-3.2314.559-4.79939.374-1.17171 1.119-2.19022 2.123-2.90197 1.247-.73768 2.687-1.0874 4.134-1.00452 2.347 0 4.023.55807 5.028 1.78582 1.157 1.62118 1.71 3.59518 1.565 5.5807v.89291h-3.353v-.7813c.005-.93477-.069-1.86827-.223-2.79035-.094-.58268-.416-1.10439-.894-1.45098a3.45482 3.45482 0 0 0-2.123-.55807 3.35627 3.35627 0 0 0-2.235.66969c-.263.22123-.477.49373-.631.8008-.154.30707-.243.64225-.263.98502-.147.99781-.222 2.00497-.223 3.01357v9.48721c-.082 1.4454.146 2.8916.67 4.2413.447.8929 1.341 1.2278 2.682 1.2278.529.0659 1.067-.0261 1.544-.2645.477-.2383.873-.6123 1.138-1.0749.59-1.4114.857-2.9368.782-4.4646v-1.7858h-3.241V13.612h6.481v12.6124h-2.234l-.336-2.902c-.293.9726-.903 1.8194-1.733 2.4059-.83.5865-1.832.8789-2.848.8309a5.59367 5.59367 0 0 1-2.684-.5109c-.839-.3896-1.567-.9811-2.121-1.7214ZM133.861 17.2949 128.386.8877h3.352l3.911 12.2775L139.448.8877h3.352l-5.475 16.4072v8.9291h-3.352v-8.9291h-.112Z"/></svg>
